<svg xmlns="http://www.w3.org/2000/svg" xmlns:xlink="http://www.w3.org/1999/xlink" xmlns:lucid="lucid" width="1995" height="2322"><g transform="translate(-753 0)" lucid:page-tab-id="3HMHBDpbD4eQ"><path d="M887.63 131.83v-55a8 8 0 0 1 8-8h1724.53a8 8 0 0 1 8 8v55z" stroke="#263dc7" stroke-width="2" fill="#f2f3f5"/><path d="M887.63 194.83v-63h886.87v63M1774.5 194.83v-63h853.66v63" stroke="#263dc7" stroke-width="2" fill="#263dc7"/><path d="M1774.5 2191.96H895.63a8 8 0 0 1-8-8V194.83h886.87zM2628.16 194.83v1989.13a8 8 0 0 1-8 8H1774.5V194.83z" stroke="#263dc7" stroke-width="2" fill="#fff"/><use xlink:href="#a" transform="matrix(1,0,0,1,887.6330165824925,68.82895490402484) translate(625.4444444444445 39.5)"/><use xlink:href="#b" transform="matrix(1,0,0,1,887.6330165824925,68.82895490402484) translate(780.6666666666667 39.5)"/><use xlink:href="#c" transform="matrix(1,0,0,1,887.6330165824925,68.82895490402484) translate(951.5555555555557 39.5)"/><use xlink:href="#d" transform="matrix(1,0,0,1,887.6330165824925,68.82895490402484) translate(1058 39.5)"/><use xlink:href="#e" transform="matrix(1,0,0,1,887.6330165824925,131.82895490402484) translate(391.44444444444446 39.5)"/><use xlink:href="#f" transform="matrix(1,0,0,1,1774.4990073539316,131.82895490402484) translate(361.5 39.5)"/><path d="M1365.9 266.82c0 19.23-15.6 34.82-34.83 34.82-19.24 0-34.83-15.6-34.83-34.82 0-19.23 15.6-34.82 34.83-34.82 19.23 0 34.82 15.6 34.82 34.82z" stroke="#282c33"/><g filter="url(#g)"><path d="M1198.7 367.66c-10.8 0-19.52 8.73-19.52 19.5v58.55c0 10.8 8.73 19.53 19.5 19.53h264.76c10.78 0 19.52-8.74 19.52-19.52v-58.53c0-10.78-8.74-19.5-19.52-19.5z" stroke="#263dc7" stroke-width="3" fill="#fff"/><use xlink:href="#h" transform="matrix(1,0,0,1,1187.1759704048382,375.65735632071045) translate(106.01851851851852 48.82222222222222)"/></g><path d="M1331.07 524.23l58.84 58.84-58.83 58.83-58.84-58.83z" stroke="#000" stroke-opacity="0" stroke-width="3" fill="#fe3230"/><g filter="url(#g)"><path d="M1198.7 700.9c-10.8 0-19.52 8.74-19.52 19.52v58.54c0 10.78 8.73 19.5 19.5 19.5h264.76c10.78 0 19.52-8.72 19.52-19.5v-58.54c0-10.78-8.74-19.52-19.52-19.52z" stroke="#263dc7" stroke-width="3" fill="#fff"/><use xlink:href="#i" transform="matrix(1,0,0,1,1187.1759704048745,708.9037805620189) translate(99.19135802469135 30.155555555555548)"/><use xlink:href="#j" transform="matrix(1,0,0,1,1187.1759704048745,708.9037805620189) translate(55.93827160493828 67.4888888888889)"/></g><g filter="url(#g)"><path d="M1198.7 872.32c-10.8 0-19.52 8.74-19.52 19.5v58.56c0 10.77 8.73 19.5 19.5 19.5h264.76c10.78 0 19.52-8.73 19.52-19.5v-58.54c0-10.78-8.74-19.52-19.52-19.52z" stroke="#263dc7" stroke-width="3" fill="#fff"/><use xlink:href="#k" transform="matrix(1,0,0,1,1187.1759704048745,880.3216928825306) translate(73.22222222222223 30.155555555555548)"/><use xlink:href="#l" transform="matrix(1,0,0,1,1187.1759704048745,880.3216928825306) translate(149.1851851851852 30.155555555555548)"/><use xlink:href="#j" transform="matrix(1,0,0,1,1187.1759704048745,880.3216928825306) translate(55.93827160493828 67.4888888888889)"/></g><g filter="url(#g)"><path d="M2068.95 872.32c-10.77 0-19.5 8.74-19.5 19.5v58.56c0 10.77 8.73 19.5 19.5 19.5h264.76c10.78 0 19.52-8.73 19.52-19.5v-58.54c0-10.78-8.74-19.52-19.5-19.52z" stroke="#263dc7" stroke-width="3" fill="#fff"/><use xlink:href="#m" transform="matrix(1,0,0,1,2057.4390981656034,880.3216928825306) translate(62.11728395061728 30.155555555555548)"/><use xlink:href="#l" transform="matrix(1,0,0,1,2057.4390981656034,880.3216928825306) translate(160.29012345679013 30.155555555555548)"/><use xlink:href="#j" transform="matrix(1,0,0,1,2057.4390981656034,880.3216928825306) translate(55.93827160493828 67.4888888888889)"/></g><path d="M2201.33 1043.74l58.84 58.84-58.84 58.84-58.84-58.84zM2201.33 1235.27l58.84 58.84-58.84 58.84-58.84-58.84z" stroke="#000" stroke-opacity="0" stroke-width="3" fill="#fe3230"/><g filter="url(#g)"><path d="M1198.7 1053.8c-10.8 0-19.52 8.73-19.52 19.5v58.55c0 10.78 8.73 19.5 19.5 19.5h264.76c10.78 0 19.52-8.72 19.52-19.5v-58.54c0-10.77-8.74-19.5-19.52-19.5z" stroke="#263dc7" stroke-width="3" fill="#fff"/><use xlink:href="#n" transform="matrix(1,0,0,1,1187.1759704048745,1061.7937990781672) translate(72.31481481481482 30.155555555555548)"/><use xlink:href="#l" transform="matrix(1,0,0,1,1187.1759704048745,1061.7937990781672) translate(150.0925925925926 30.155555555555548)"/><use xlink:href="#j" transform="matrix(1,0,0,1,1187.1759704048745,1061.7937990781672) translate(55.93827160493828 67.4888888888889)"/></g><g filter="url(#g)"><path d="M1198.7 1245.32c-10.8 0-19.52 8.74-19.52 19.5v58.56c0 10.77 8.73 19.5 19.5 19.5h264.76c10.78 0 19.52-8.73 19.52-19.5v-58.55c0-10.77-8.74-19.5-19.52-19.5z" stroke="#263dc7" stroke-width="3" fill="#fff"/><use xlink:href="#o" transform="matrix(1,0,0,1,1187.1759704048745,1253.320099148929) translate(69.76543209876543 30.155555555555548)"/><use xlink:href="#l" transform="matrix(1,0,0,1,1187.1759704048745,1253.320099148929) translate(152.64197530864197 30.155555555555548)"/><use xlink:href="#j" transform="matrix(1,0,0,1,1187.1759704048745,1253.320099148929) translate(55.93827160493828 67.4888888888889)"/></g><path d="M2201.33 1426.8l58.84 58.83-58.84 58.84-58.84-58.84z" stroke="#000" stroke-opacity="0" stroke-width="3" fill="#fe3230"/><g filter="url(#g)"><path d="M1198.7 1436.85c-10.8 0-19.52 8.73-19.52 19.5v58.55c0 10.78 8.73 19.5 19.5 19.5h264.76c10.78 0 19.52-8.72 19.52-19.5v-58.54c0-10.78-8.74-19.5-19.52-19.5z" stroke="#263dc7" stroke-width="3" fill="#fff"/><use xlink:href="#p" transform="matrix(1,0,0,1,1187.1759704048745,1444.846399219691) translate(61.98765432098766 30.155555555555548)"/><use xlink:href="#l" transform="matrix(1,0,0,1,1187.1759704048745,1444.846399219691) translate(160.41975308641975 30.155555555555548)"/><use xlink:href="#j" transform="matrix(1,0,0,1,1187.1759704048745,1444.846399219691) translate(55.93827160493828 67.4888888888889)"/></g><g filter="url(#g)"><path d="M2068.95 1618.32c-10.77 0-19.5 8.74-19.5 19.5v58.55c0 10.78 8.73 19.52 19.5 19.52h264.76c10.78 0 19.52-8.75 19.52-19.53v-58.54c0-10.77-8.74-19.5-19.5-19.5z" stroke="#263dc7" stroke-width="3" fill="#fe3230"/><use xlink:href="#q" transform="matrix(1,0,0,1,2057.439098165603,1626.3185054153278) translate(37.40123456790124 48.82222222222222)"/><use xlink:href="#r" transform="matrix(1,0,0,1,2057.439098165603,1626.3185054153278) translate(113.27777777777779 48.82222222222222)"/></g><g filter="url(#g)"><path d="M2068.95 1789.74c-10.77 0-19.5 8.73-19.5 19.5v58.55c0 10.77 8.73 19.5 19.5 19.5h264.76c10.78 0 19.52-8.73 19.52-19.5v-58.55c0-10.78-8.74-19.5-19.5-19.5z" stroke="#263dc7" stroke-width="3" fill="#263dc7"/><use xlink:href="#q" transform="matrix(1,0,0,1,2057.4390981656034,1797.7364177358395) translate(36.19135802469137 48.82222222222222)"/><use xlink:href="#s" transform="matrix(1,0,0,1,2057.4390981656034,1797.7364177358395) translate(112.06790123456791 48.82222222222222)"/></g><g filter="url(#g)"><path d="M1198.7 1789.74c-10.8 0-19.52 8.73-19.52 19.5v58.55c0 10.77 8.73 19.5 19.5 19.5h264.76c10.78 0 19.52-8.73 19.52-19.5v-58.55c0-10.78-8.74-19.5-19.52-19.5z" stroke="#263dc7" stroke-width="3" fill="#fff"/><use xlink:href="#t" transform="matrix(1,0,0,1,1187.1759704048745,1797.7364177358395) translate(54.25308641975309 48.82222222222222)"/><use xlink:href="#u" transform="matrix(1,0,0,1,1187.1759704048745,1797.7364177358395) translate(168.15432098765433 48.82222222222222)"/></g><path d="M1365.9 2055.2c0 19.23-15.6 34.82-34.83 34.82-19.24 0-34.83-15.6-34.83-34.82 0-19.24 15.6-34.83 34.83-34.83 19.23 0 34.82 15.6 34.82 34.83z" stroke="#333" fill="#fff"/><path d="M1351.96 2055.2c0 11.53-9.36 20.9-20.9 20.9-11.53 0-20.9-9.37-20.9-20.9 0-11.54 9.37-20.9 20.9-20.9 11.55 0 20.9 9.36 20.9 20.9z" stroke="#333"/><path d="M1330.2 303.58v41.96" stroke="#263dc7" stroke-width="3" fill="none"/><path d="M1331.07 302.14l.6-.04v1.52h-2.95v-1.64z" stroke="#263dc7" stroke-width=".05" fill="#263dc7"/><path d="M1330.2 361.3l-4.64-14.26h9.27z" stroke="#263dc7" stroke-width="3" fill="#263dc7"/><path d="M1331.07 468.23v35.38" stroke="#263dc7" stroke-width="3" fill="none"/><path d="M1332.54 468.26h-2.95v-1.53h2.94z" stroke="#263dc7" stroke-width=".05" fill="#263dc7"/><path d="M1331.07 519.37l-4.64-14.26h9.27z" stroke="#263dc7" stroke-width="3" fill="#263dc7"/><path d="M1584.54 737.75l-.16 2.05-.5 2.05-.8 1.96-1.1 1.8-1.38 1.62-1.6 1.37-1.82 1.1-1.95.8-2.06.5-2.05.16h-66.04v-2.95H1571l1.7-.12 1.6-.4 1.54-.62 1.4-.86 1.26-1.07 1.07-1.26.87-1.4.63-1.53.38-1.6.14-1.7v-58.3h2.94zm-11.37-156l2.06.5 1.95.8 1.8 1.1 1.62 1.38 1.37 1.6 1.1 1.82.8 1.95.5 2.06.17 2.05v57.67h-2.95v-57.55l-.15-1.7-.38-1.6-.63-1.53-.87-1.42-1.07-1.25-1.25-1.08-1.4-.86-1.54-.64-1.6-.4-1.7-.12h-179.6v-2.95h179.72z" stroke="#263dc7" stroke-width=".05" fill="#263dc7"/><path d="M1391.44 584.54h-3l1.46-1.47-1.47-1.48h3z" fill="#263dc7"/><path stroke="#263dc7" stroke-width=".05" fill="#263dc7"/><path d="M1503.58 754.32l-14.27-4.63 14.28-4.65z" fill="#263dc7"/><path d="M1505.05 756.35l-20.5-6.66 20.5-6.68zm-10.97-6.66l8.02 2.6v-5.22z" stroke="#263dc7" stroke-width=".05" fill="#263dc7"/><use xlink:href="#v" transform="matrix(1,0,0,1,1512.8162697121936,652.6666666666666) translate(0 17.77777777777778)"/><use xlink:href="#w" transform="matrix(1,0,0,1,1512.8162697121936,652.6666666666666) translate(60.4320987654321 17.77777777777778)"/><path d="M1485.96 921.1h541.36" stroke="#263dc7" stroke-width="3" fill="none"/><path d="M1486 922.58h-1.54v-2.95h1.53z" stroke="#263dc7" stroke-width=".05" fill="#263dc7"/><path d="M2043.08 921.1l-14.26 4.64v-9.27z" stroke="#263dc7" stroke-width="3" fill="#263dc7"/><path d="M2197.66 972.9v53.9" stroke="#263dc7" stroke-width="3" fill="none"/><path d="M2199.13 972.93h-2.95v-1.54h2.95z" stroke="#263dc7" stroke-width=".05" fill="#263dc7"/><path d="M2197.66 1042.56l-4.64-14.27h9.27z" stroke="#263dc7" stroke-width="3" fill="#263dc7"/><use xlink:href="#x" transform="matrix(1,0,0,1,2210.2898442039923,1017.6985976422758) translate(0 17.77777777777778)"/><path d="M1855.04 1104.05h-349.96v-2.95h349.96zm285.95 0h-260.04v-2.95H2141z" stroke="#263dc7" stroke-width=".05" fill="#263dc7"/><path d="M2142.5 1102.58l1.47 1.47h-3.02v-2.95h3.02z" fill="#263dc7"/><path stroke="#263dc7" stroke-width=".05" fill="#263dc7"/><path d="M1503.58 1107.2l-14.27-4.62 14.28-4.64z" fill="#263dc7"/><path d="M1505.05 1109.24l-20.5-6.66 20.5-6.67zm-10.97-6.66l8.02 2.6v-5.2z" stroke="#263dc7" stroke-width=".05" fill="#263dc7"/><use xlink:href="#y" transform="matrix(1,0,0,1,1855.037037037037,1089.2449748675986) translate(0 17.77777777777778)"/><path d="M2202.8 1214.65h-2.95V1197h2.95zm0-44.3h-2.95v-7.43h2.95z" stroke="#263dc7" stroke-width=".05" fill="#263dc7"/><path d="M2202.8 1162.95h-2.95v-3l1.48 1.47 1.47-1.48z" fill="#263dc7"/><path stroke="#263dc7" stroke-width=".05" fill="#263dc7"/><path d="M2201.33 1230.4l-4.64-14.25h9.26z" fill="#263dc7"/><path d="M2201.33 1235.18l-6.67-20.5H2208zm-2.6-17.56l2.6 8.02 2.6-8.02z" stroke="#263dc7" stroke-width=".05" fill="#263dc7"/><use xlink:href="#z" transform="matrix(1,0,0,1,2174.631608864779,1170.341460298969) translate(0 17.77777777777778)"/><use xlink:href="#A" transform="matrix(1,0,0,1,2213.9643946446013,1203.4896164016325) translate(0 17.77777777777778)"/><path d="M2202.8 1406.17h-2.95v-21.64h2.95zm0-48.3h-2.95v-3.43h2.95z" stroke="#263dc7" stroke-width=".05" fill="#263dc7"/><path d="M2202.8 1354.48h-2.95v-3l1.48 1.46 1.47-1.47z" fill="#263dc7"/><path stroke="#263dc7" stroke-width=".05" fill="#263dc7"/><path d="M2201.33 1421.94l-4.64-14.27h9.26z" fill="#263dc7"/><path d="M2201.33 1426.7l-6.67-20.5H2208zm-2.6-17.55l2.6 8 2.6-8z" stroke="#263dc7" stroke-width=".05" fill="#263dc7"/><use xlink:href="#B" transform="matrix(1,0,0,1,2213.9643946446276,1395.6051357803485) translate(0 17.77777777777778)"/><use xlink:href="#z" transform="matrix(1,0,0,1,2174.631608864779,1357.8666666666668) translate(0 17.77777777777778)"/><path d="M1850.46 1295.58H1505.1v-2.95h345.4zm290.53 0h-265.04v-2.95H2141z" stroke="#263dc7" stroke-width=".05" fill="#263dc7"/><path d="M2142.5 1294.1l1.47 1.48h-3.02v-2.95h3.02z" fill="#263dc7"/><path stroke="#263dc7" stroke-width=".05" fill="#263dc7"/><path d="M1503.58 1298.74l-14.27-4.63 14.28-4.63z" fill="#263dc7"/><path d="M1505.05 1300.77l-20.5-6.66 20.5-6.66zm-10.97-6.66l8.02 2.6v-5.2z" stroke="#263dc7" stroke-width=".05" fill="#263dc7"/><use xlink:href="#C" transform="matrix(1,0,0,1,1850.4650914746198,1280.7712749383604) translate(0 17.77777777777778)"/><path d="M1847.5 1487.1h-342.42v-2.94h342.42zm293.5 0h-268v-2.94h268z" stroke="#263dc7" stroke-width=".05" fill="#263dc7"/><path d="M2142.5 1485.63l1.47 1.48h-3.02v-2.94h3.02z" fill="#263dc7"/><path stroke="#263dc7" stroke-width=".05" fill="#263dc7"/><path d="M1503.58 1490.27l-14.27-4.64 14.28-4.63z" fill="#263dc7"/><path d="M1505.05 1492.3l-20.5-6.67 20.5-6.67zm-10.97-6.67l8.02 2.6v-5.2z" stroke="#263dc7" stroke-width=".05" fill="#263dc7"/><use xlink:href="#C" transform="matrix(1,0,0,1,1847.500553678192,1472.2975750091223) translate(0 17.77777777777778)"/><path d="M2469.45 1473.7l-.16 2.04-.5 2.06-.8 1.95-1.12 1.8-1.37 1.6-1.6 1.4-1.8 1.1-1.96.8-2.05.5-2.06.16h-194.37v-2.94h194.25l1.7-.14 1.6-.38 1.53-.63 1.4-.86 1.27-1.07 1.07-1.25.85-1.4.63-1.54.4-1.6.12-1.7v-263.53h2.95zm-11.36-553.9l2.04.5 1.96.8 1.8 1.1 1.6 1.38 1.38 1.6 1.1 1.8.82 1.96.5 2.06.15 2.05v250.33h-2.95V933.16l-.13-1.7-.4-1.6-.62-1.53-.86-1.4-1.08-1.26-1.26-1.07-1.4-.87-1.53-.63-1.6-.38-1.7-.14h-80.6v-2.95h80.7z" stroke="#263dc7" stroke-width=".05" fill="#263dc7"/><path d="M2261.7 1487.1h-3l1.47-1.47-1.48-1.47h3z" fill="#263dc7"/><path stroke="#263dc7" stroke-width=".05" fill="#263dc7"/><path d="M2373.84 925.74l-14.27-4.63 14.27-4.63z" fill="#263dc7"/><path d="M2375.3 927.77l-20.5-6.66 20.5-6.66zm-10.95-6.66l8 2.6v-5.2z" stroke="#263dc7" stroke-width=".05" fill="#263dc7"/><use xlink:href="#z" transform="matrix(1,0,0,1,2441.2801846619386,1183.384202789144) translate(0 17.77777777777778)"/><path d="M1331.07 801.47v48.73" stroke="#263dc7" stroke-width="3" fill="none"/><path d="M1332.54 801.5h-2.95v-1.53h2.94z" stroke="#263dc7" stroke-width=".05" fill="#263dc7"/><path d="M1331.07 865.97l-4.64-14.27h9.27z" stroke="#263dc7" stroke-width="3" fill="#263dc7"/><path d="M1042.18 1855.83l.13 1.7.4 1.6.63 1.53.86 1.4 1.07 1.27 1.25 1.07 1.4.86 1.53.63 1.6.38 1.7.13h104.3v2.96h-104.4l-2.06-.16-2.06-.5-1.96-.8-1.8-1.1-1.6-1.38-1.38-1.6-1.1-1.8-.82-1.97-.5-2.05-.15-2.06V1608.9h2.95zm134-751.78h-123.42l-1.7.14-1.6.37-1.53.63-1.4.87-1.26 1.07-1.08 1.25-.87 1.4-.63 1.53-.4 1.6-.12 1.7v467.6h-2.95v-467.7l.16-2.06.48-2.06.8-1.94 1.12-1.8 1.37-1.6 1.6-1.4 1.8-1.1 1.97-.8 2.06-.5 2.05-.16h123.53z" stroke="#263dc7" stroke-width=".05" fill="#263dc7"/><path d="M1177.68 1104.05h-1.54v-2.95h1.54z" fill="#263dc7"/><path stroke="#263dc7" stroke-width=".05" fill="#263dc7"/><path d="M1172.82 1867.9l-14.26 4.62v-9.27z" fill="#263dc7"/><path d="M1177.6 1867.9l-20.52 6.65v-13.33zm-17.57 2.6l8.02-2.6-8.02-2.62z" stroke="#263dc7" stroke-width=".05" fill="#263dc7"/><use xlink:href="#C" transform="matrix(1,0,0,1,1027.9568072964187,1582.228918228138) translate(0 17.77777777777778)"/><path d="M1112.12 1808.26l.13 1.7.4 1.6.62 1.53.86 1.4 1.08 1.25 1.26 1.08 1.4.86 1.53.62 1.6.4 1.7.12h34.36v2.95h-34.47l-2.06-.17-2.06-.5-1.95-.8-1.8-1.1-1.62-1.38-1.36-1.6-1.1-1.82-.82-1.95-.5-2.06-.15-2.05V1401.9h2.95zm64.06-512.68h-53.48l-1.7.13-1.6.4-1.53.63-1.4.86-1.26 1.07-1.07 1.25-.86 1.4-.63 1.53-.4 1.6-.12 1.7v69.1h-2.95v-69.2l.16-2.05.5-2.06.8-1.96 1.1-1.8 1.38-1.6 1.62-1.38 1.8-1.1 1.96-.8 2.06-.5 2.05-.17h53.58z" stroke="#263dc7" stroke-width=".05" fill="#263dc7"/><path d="M1177.68 1295.58h-1.54v-2.95h1.54z" fill="#263dc7"/><path stroke="#263dc7" stroke-width=".05" fill="#263dc7"/><path d="M1172.82 1820.32l-14.26 4.63v-9.27z" fill="#263dc7"/><path d="M1177.6 1820.32l-20.52 6.66v-13.33zm-17.57 2.6l8.02-2.6-8.02-2.6z" stroke="#263dc7" stroke-width=".05" fill="#263dc7"/><use xlink:href="#C" transform="matrix(1,0,0,1,1097.897795702238,1375.2471934055993) translate(0 17.77777777777778)"/><path d="M1331.07 1537.4v117.7a12 12 0 0 0 12 12h684.25" stroke="#263dc7" stroke-width="3" fill="none"/><path d="M1332.54 1537.45h-2.95v-1.54h2.94z" stroke="#263dc7" stroke-width=".05" fill="#263dc7"/><path d="M2043.1 1667.1l-14.28 4.64v-9.27z" stroke="#263dc7" stroke-width="3" fill="#263dc7"/><path d="M2356.22 1667.1h99.76a12 12 0 0 1 12 12v381.56a12 12 0 0 1-12 12H1382.3" stroke="#263dc7" stroke-width="3" fill="none"/><path d="M2356.26 1668.58h-1.54v-2.95h1.54z" stroke="#263dc7" stroke-width=".05" fill="#263dc7"/><path d="M1366.53 2072.66l14.27-4.64v9.27z" stroke="#263dc7" stroke-width="3" fill="#263dc7"/><path d="M1485.96 1838.52h541.36" stroke="#263dc7" stroke-width="3" fill="none"/><path d="M1486 1840h-1.54v-2.95h1.53z" stroke="#263dc7" stroke-width=".05" fill="#263dc7"/><path d="M2043.1 1838.52l-14.28 4.64v-9.27z" stroke="#263dc7" stroke-width="3" fill="#263dc7"/><path d="M2197.66 1890.3v133.37a12 12 0 0 1-12 12h-804.6" stroke="#263dc7" stroke-width="3" fill="none"/><path d="M2199.13 1890.34h-2.95v-1.53h2.95z" stroke="#263dc7" stroke-width=".05" fill="#263dc7"/><path d="M1365.3 2035.67l14.27-4.64v9.27z" stroke="#263dc7" stroke-width="3" fill="#263dc7"/><path d="M1331.07 1890.3v108.95" stroke="#263dc7" stroke-width="3" fill="none"/><path d="M1332.54 1890.34h-2.95v-1.53h2.94z" stroke="#263dc7" stroke-width=".05" fill="#263dc7"/><path d="M1331.07 2015.02l-4.64-14.27h9.27z" stroke="#263dc7" stroke-width="3" fill="#263dc7"/><path d="M1068.7 571l.14 1.7.4 1.62.62 1.52.86 1.4 1.08 1.26 1.25 1.08 1.4.86 1.53.63 1.6.4 1.7.12h191.45v2.94h-191.55l-2.06-.16-2.05-.5-1.96-.8-1.8-1.1-1.6-1.38-1.37-1.6-1.1-1.82-.82-1.95-.48-2.06-.16-2.05v-59.8h2.95zm88.36-153.08h-77.77l-1.7.13-1.62.4-1.52.62-1.4.86-1.26 1.07-1.08 1.26-.86 1.4-.63 1.53-.4 1.6-.12 1.7v56.17h-2.94v-56.3l.16-2.04.5-2.05.8-1.96 1.1-1.8 1.38-1.6 1.6-1.38 1.8-1.1 1.97-.82 2.06-.5 2.05-.15h77.88z" stroke="#263dc7" stroke-width=".05" fill="#263dc7"/><path d="M1272.23 583.07l1.47 1.47h-3v-2.95h3z" fill="#263dc7"/><path stroke="#263dc7" stroke-width=".05" fill="#263dc7"/><path d="M1172.82 416.44l-14.26 4.64v-9.27z" fill="#263dc7"/><path d="M1177.6 416.44l-20.52 6.67V409.8zm-17.57 2.6l8.02-2.6-8.02-2.6z" stroke="#263dc7" stroke-width=".05" fill="#263dc7"/><g><use xlink:href="#v" transform="matrix(1,0,0,1,1007.41879189919,484.6666666666667) translate(0 17.77777777777778)"/><use xlink:href="#D" transform="matrix(1,0,0,1,1007.41879189919,484.6666666666667) translate(60.4320987654321 17.77777777777778)"/></g><defs><path fill="#263dc7" d="M183 0l-10-63H79L44 0H-7l138-248h61L234 0h-51zm-14-102l-15-108c-16 38-36 73-55 108h70" id="E"/><path fill="#263dc7" d="M128 0L95-87 70-74 55 0H6l51-261h49L77-111l82-79h56l-83 74L180 0h-52" id="F"/><path fill="#263dc7" d="M72-63c-8 23 5 39 32 30L98-1C54 14 12-6 23-64l18-93H15l7-33h28l24-45h31l-8 45h35l-6 33H90" id="G"/><path fill="#263dc7" d="M50-224l7-37h49l-7 37H50zM6 0l37-190h49L55 0H6" id="H"/><path fill="#263dc7" d="M109 0H50L19-190h51L86-37l77-153h54" id="I"/><path fill="#263dc7" d="M100 10C77 47 50 87-15 72l7-35c37 9 51-18 65-41L20-190h51L89-44l73-146h53" id="J"/><g id="a"><use transform="matrix(0.1111111111111111,0,0,0.1111111111111111,0,0)" xlink:href="#E"/><use transform="matrix(0.1111111111111111,0,0,0.1111111111111111,28.777777777777775,0)" xlink:href="#F"/><use transform="matrix(0.1111111111111111,0,0,0.1111111111111111,51,0)" xlink:href="#G"/><use transform="matrix(0.1111111111111111,0,0,0.1111111111111111,64.22222222222223,0)" xlink:href="#H"/><use transform="matrix(0.1111111111111111,0,0,0.1111111111111111,75.33333333333334,0)" xlink:href="#I"/><use transform="matrix(0.1111111111111111,0,0,0.1111111111111111,97.55555555555557,0)" xlink:href="#H"/><use transform="matrix(0.1111111111111111,0,0,0.1111111111111111,108.66666666666669,0)" xlink:href="#G"/><use transform="matrix(0.1111111111111111,0,0,0.1111111111111111,121.88888888888891,0)" xlink:href="#J"/></g><path fill="#263dc7" d="M250-142C247-53 197 0 108 0H6l48-248c105-5 200 3 196 106zm-49 2c1-57-42-72-103-68L66-40c84 6 135-22 135-100" id="K"/><path fill="#263dc7" d="M166-52c-4 17 5 29 24 23l-3 27c-30 11-74 1-67-34C105-15 91 4 56 4 23 4 3-15 2-49c0-64 63-67 128-67 10-22 3-53-29-45-13 3-22 10-25 24l-46-5c5-64 156-77 153 0-1 33-11 60-17 90zM97-88c-44-9-64 57-19 57 31 0 42-28 47-57H97" id="L"/><path fill="#263dc7" d="M45-171c29-32 103-29 114 14 2-11 5-23 8-33h47L176-2c-3 70-92 96-155 64C9 56 1 42-1 25l50-5c2 28 48 27 63 11 13-13 20-45 21-66-13 20-30 35-62 36-87 3-60-134-26-172zM94-35c41-3 55-43 55-86 0-24-12-39-35-39-43 0-51 48-51 90 0 22 9 37 31 35" id="M"/><path fill="#263dc7" d="M84-151c13-25 34-51 72-40l-8 41C67-170 71-64 56 0H6l36-190h47" id="N"/><path fill="#263dc7" d="M255-194c90 0 29 129 24 194h-49l25-136c-7-39-53-14-60 9-12 38-18 85-28 127h-49l25-136c2-29-39-23-50-7C69-108 68-47 56 0H6l36-190h48c-1 10-6 24-4 32 12-20 27-36 57-36s46 15 50 41c14-21 29-41 62-41" id="O"/><g id="b"><use transform="matrix(0.1111111111111111,0,0,0.1111111111111111,0,0)" xlink:href="#K"/><use transform="matrix(0.1111111111111111,0,0,0.1111111111111111,28.777777777777775,0)" xlink:href="#H"/><use transform="matrix(0.1111111111111111,0,0,0.1111111111111111,39.888888888888886,0)" xlink:href="#L"/><use transform="matrix(0.1111111111111111,0,0,0.1111111111111111,62.11111111111111,0)" xlink:href="#M"/><use transform="matrix(0.1111111111111111,0,0,0.1111111111111111,86.44444444444444,0)" xlink:href="#N"/><use transform="matrix(0.1111111111111111,0,0,0.1111111111111111,102,0)" xlink:href="#L"/><use transform="matrix(0.1111111111111111,0,0,0.1111111111111111,124.22222222222224,0)" xlink:href="#O"/></g><path fill="#263dc7" d="M70-104c-4 71 81 81 132 50l8-40h-60l7-37h108L246-31C216-10 181 3 130 3 60 2 18-32 18-102c-1-106 79-169 188-144 33 8 53 31 63 63l-50 14c-6-26-25-42-56-42-62 0-89 43-93 107" id="P"/><path fill="#263dc7" d="M69 3c-96 0-34-126-28-193h49L65-57c6 42 62 18 71-6 14-38 17-86 28-127h50L178 0h-47c0-11 4-26 3-33-14 20-30 37-65 36" id="Q"/><g id="c"><use transform="matrix(0.1111111111111111,0,0,0.1111111111111111,0,0)" xlink:href="#P"/><use transform="matrix(0.1111111111111111,0,0,0.1111111111111111,31.11111111111111,0)" xlink:href="#Q"/><use transform="matrix(0.1111111111111111,0,0,0.1111111111111111,55.44444444444444,0)" xlink:href="#N"/><use transform="matrix(0.1111111111111111,0,0,0.1111111111111111,71,0)" xlink:href="#Q"/></g><path fill="#263dc7" d="M240-76C239 26 104-5 6 0l48-248c79 4 193-21 193 58 0 38-25 53-57 60 29 5 49 21 50 54zm-45-106c0-40-58-24-96-27l-12 61c45-3 108 12 108-34zm-7 105c0-44-65-31-109-33L66-38c51-3 122 14 122-39" id="R"/><path fill="#263dc7" d="M175 0l-63-112-37 21L58 0H6l48-248h52L83-135l134-113h65L150-139 232 0h-57" id="S"/><g id="d"><use transform="matrix(0.1111111111111111,0,0,0.1111111111111111,0,0)" xlink:href="#R"/><use transform="matrix(0.1111111111111111,0,0,0.1111111111111111,28.777777777777775,0)" xlink:href="#S"/></g><path fill="#fff" d="M199 0l-22-63H83L61 0H9l90-248h61L250 0h-51zm-33-102l-36-108c-10 38-24 72-36 108h72" id="T"/><path fill="#fff" d="M147 0L96-86 75-71V0H25v-261h50v150l67-79h53l-66 74L201 0h-54" id="U"/><path fill="#fff" d="M115-3C79 11 28 4 28-45v-112H4v-33h27l15-45h31v45h36v33H77v99c-1 23 16 31 38 25v30" id="V"/><path fill="#fff" d="M110-194c64 0 96 36 96 99 0 64-35 99-97 99-61 0-95-36-95-99 0-62 34-99 96-99zm-1 164c35 0 45-28 45-65 0-40-10-65-43-65-34 0-45 26-45 65 0 36 10 65 43 65" id="W"/><path fill="#fff" d="M135-150c-39-12-60 13-60 57V0H25l-1-190h47c2 13-1 29 3 40 6-28 27-53 61-41v41" id="X"/><g id="e"><use transform="matrix(0.1111111111111111,0,0,0.1111111111111111,0,0)" xlink:href="#T"/><use transform="matrix(0.1111111111111111,0,0,0.1111111111111111,28.777777777777775,0)" xlink:href="#U"/><use transform="matrix(0.1111111111111111,0,0,0.1111111111111111,51,0)" xlink:href="#V"/><use transform="matrix(0.1111111111111111,0,0,0.1111111111111111,64.22222222222223,0)" xlink:href="#W"/><use transform="matrix(0.1111111111111111,0,0,0.1111111111111111,88.55555555555556,0)" xlink:href="#X"/></g><path fill="#fff" d="M169-182c-1-43-94-46-97-3 18 66 151 10 154 114 3 95-165 93-204 36-6-8-10-19-12-30l50-8c3 46 112 56 116 5-17-69-150-10-154-114-4-87 153-88 188-35 5 8 8 18 10 28" id="Y"/><path fill="#fff" d="M25-224v-37h50v37H25zM25 0v-190h50V0H25" id="Z"/><path fill="#fff" d="M137-138c1-29-70-34-71-4 15 46 118 7 119 86 1 83-164 76-172 9l43-7c4 19 20 25 44 25 33 8 57-30 24-41C81-84 22-81 20-136c-2-80 154-74 161-7" id="aa"/><path fill="#fff" d="M185-48c-13 30-37 53-82 52C43 2 14-33 14-96s30-98 90-98c62 0 83 45 84 108H66c0 31 8 55 39 56 18 0 30-7 34-22zm-45-69c5-46-57-63-70-21-2 6-4 13-4 21h74" id="ab"/><path fill="#fff" d="M220-157c-53 9-28 100-34 157h-49v-107c1-27-5-49-29-50C55-147 81-57 75 0H25l-1-190h47c2 12-1 28 3 38 10-53 101-56 108 0 13-22 24-43 59-42 82 1 51 116 57 194h-49v-107c-1-25-5-48-29-50" id="ac"/><g id="f"><use transform="matrix(0.1111111111111111,0,0,0.1111111111111111,0,0)" xlink:href="#Y"/><use transform="matrix(0.1111111111111111,0,0,0.1111111111111111,26.666666666666664,0)" xlink:href="#Z"/><use transform="matrix(0.1111111111111111,0,0,0.1111111111111111,37.77777777777777,0)" xlink:href="#aa"/><use transform="matrix(0.1111111111111111,0,0,0.1111111111111111,60,0)" xlink:href="#V"/><use transform="matrix(0.1111111111111111,0,0,0.1111111111111111,73.22222222222221,0)" xlink:href="#ab"/><use transform="matrix(0.1111111111111111,0,0,0.1111111111111111,95.44444444444443,0)" xlink:href="#ac"/></g><path fill="#263dc7" d="M30 0v-248h33v221h125V0H30" id="ad"/><path fill="#263dc7" d="M100-194c62-1 85 37 85 99 1 63-27 99-86 99S16-35 15-95c0-66 28-99 85-99zM99-20c44 1 53-31 53-75 0-43-8-75-51-75s-53 32-53 75 10 74 51 75" id="ae"/><path fill="#263dc7" d="M177-190C167-65 218 103 67 71c-23-6-38-20-44-43l32-5c15 47 100 32 89-28v-30C133-14 115 1 83 1 29 1 15-40 15-95c0-56 16-97 71-98 29-1 48 16 59 35 1-10 0-23 2-32h30zM94-22c36 0 50-32 50-73 0-42-14-75-50-75-39 0-46 34-46 75s6 73 46 73" id="af"/><path fill="#263dc7" d="M24-231v-30h32v30H24zM24 0v-190h32V0H24" id="ag"/><path fill="#263dc7" d="M117-194c89-4 53 116 60 194h-32v-121c0-31-8-49-39-48C34-167 62-67 57 0H25l-1-190h30c1 10-1 24 2 32 11-22 29-35 61-36" id="ah"/><g id="h"><use transform="matrix(0.08641975308641976,0,0,0.08641975308641976,0,0)" xlink:href="#ad"/><use transform="matrix(0.08641975308641976,0,0,0.08641975308641976,17.283950617283953,0)" xlink:href="#ae"/><use transform="matrix(0.08641975308641976,0,0,0.08641975308641976,34.567901234567906,0)" xlink:href="#af"/><use transform="matrix(0.08641975308641976,0,0,0.08641975308641976,51.851851851851855,0)" xlink:href="#ag"/><use transform="matrix(0.08641975308641976,0,0,0.08641975308641976,58.67901234567903,0)" xlink:href="#ah"/></g><filter id="g" filterUnits="objectBoundingBox" x="-.01" y="-.01" width="1.03" height="1.1"><feOffset result="offOut" in="SourceAlpha" dx="3.21" dy="3.83"/><feGaussianBlur result="blurOut" in="offOut" stdDeviation="2.5"/><feColorMatrix result="colorOut" in="blurOut" values="0 0 0 0 0.05960784313725491 0 0 0 0 0.09568627450980392 0 0 0 0 0.3121568627450981 0 0 0 0.4 0"/><feBlend in="SourceGraphic" in2="colorOut"/></filter><path fill="#263dc7" d="M197 0v-115H63V0H30v-248h33v105h134v-105h34V0h-34" id="ai"/><path fill="#263dc7" d="M141-36C126-15 110 5 73 4 37 3 15-17 15-53c-1-64 63-63 125-63 3-35-9-54-41-54-24 1-41 7-42 31l-33-3c5-37 33-52 76-52 45 0 72 20 72 64v82c-1 20 7 32 28 27v20c-31 9-61-2-59-35zM48-53c0 20 12 33 32 33 41-3 63-29 60-74-43 2-92-5-92 41" id="aj"/><path fill="#263dc7" d="M24 0v-261h32V0H24" id="ak"/><path fill="#263dc7" d="M210-169c-67 3-38 105-44 169h-31v-121c0-29-5-50-35-48C34-165 62-65 56 0H25l-1-190h30c1 10-1 24 2 32 10-44 99-50 107 0 11-21 27-35 58-36 85-2 47 119 55 194h-31v-121c0-29-5-49-35-48" id="al"/><g id="i"><use transform="matrix(0.08641975308641976,0,0,0.08641975308641976,0,0)" xlink:href="#ai"/><use transform="matrix(0.08641975308641976,0,0,0.08641975308641976,22.38271604938272,0)" xlink:href="#aj"/><use transform="matrix(0.08641975308641976,0,0,0.08641975308641976,39.66666666666667,0)" xlink:href="#ak"/><use transform="matrix(0.08641975308641976,0,0,0.08641975308641976,46.49382716049383,0)" xlink:href="#aj"/><use transform="matrix(0.08641975308641976,0,0,0.08641975308641976,63.777777777777786,0)" xlink:href="#al"/></g><path fill="#263dc7" d="M30-248c87 1 191-15 191 75 0 78-77 80-158 76V0H30v-248zm33 125c57 0 124 11 124-50 0-59-68-47-124-48v98" id="am"/><path fill="#263dc7" d="M100-194c63 0 86 42 84 106H49c0 40 14 67 53 68 26 1 43-12 49-29l28 8c-11 28-37 45-77 45C44 4 14-33 15-96c1-61 26-98 85-98zm52 81c6-60-76-77-97-28-3 7-6 17-6 28h103" id="an"/><path fill="#263dc7" d="M114-163C36-179 61-72 57 0H25l-1-190h30c1 12-1 29 2 39 6-27 23-49 58-41v29" id="ao"/><g id="j"><use transform="matrix(0.08641975308641976,0,0,0.08641975308641976,0,0)" xlink:href="#am"/><use transform="matrix(0.08641975308641976,0,0,0.08641975308641976,20.740740740740744,0)" xlink:href="#an"/><use transform="matrix(0.08641975308641976,0,0,0.08641975308641976,38.0246913580247,0)" xlink:href="#ak"/><use transform="matrix(0.08641975308641976,0,0,0.08641975308641976,44.85185185185187,0)" xlink:href="#aj"/><use transform="matrix(0.08641975308641976,0,0,0.08641975308641976,62.13580246913581,0)" xlink:href="#ah"/><use transform="matrix(0.08641975308641976,0,0,0.08641975308641976,79.41975308641976,0)" xlink:href="#af"/><use transform="matrix(0.08641975308641976,0,0,0.08641975308641976,96.70370370370371,0)" xlink:href="#af"/><use transform="matrix(0.08641975308641976,0,0,0.08641975308641976,113.98765432098767,0)" xlink:href="#aj"/><use transform="matrix(0.08641975308641976,0,0,0.08641975308641976,131.27160493827162,0)" xlink:href="#ao"/><use transform="matrix(0.08641975308641976,0,0,0.08641975308641976,141.55555555555557,0)" xlink:href="#aj"/><use transform="matrix(0.08641975308641976,0,0,0.08641975308641976,158.83950617283952,0)" xlink:href="#ah"/></g><path fill="#263dc7" d="M106-169C34-169 62-67 57 0H25v-261h32l-1 103c12-21 28-36 61-36 89 0 53 116 60 194h-32v-121c2-32-8-49-39-48" id="ap"/><path fill="#263dc7" d="M59-47c-2 24 18 29 38 22v24C64 9 27 4 27-40v-127H5v-23h24l9-43h21v43h35v23H59v120" id="aq"/><g id="k"><use transform="matrix(0.08641975308641976,0,0,0.08641975308641976,0,0)" xlink:href="#ad"/><use transform="matrix(0.08641975308641976,0,0,0.08641975308641976,17.283950617283953,0)" xlink:href="#ag"/><use transform="matrix(0.08641975308641976,0,0,0.08641975308641976,24.111111111111114,0)" xlink:href="#ap"/><use transform="matrix(0.08641975308641976,0,0,0.08641975308641976,41.39506172839506,0)" xlink:href="#aj"/><use transform="matrix(0.08641975308641976,0,0,0.08641975308641976,58.679012345679006,0)" xlink:href="#aq"/></g><path fill="#263dc7" d="M30-248c118-7 216 8 213 122C240-48 200 0 122 0H30v-248zM63-27c89 8 146-16 146-99s-60-101-146-95v194" id="ar"/><g id="l"><use transform="matrix(0.08641975308641976,0,0,0.08641975308641976,0,0)" xlink:href="#ar"/><use transform="matrix(0.08641975308641976,0,0,0.08641975308641976,22.38271604938272,0)" xlink:href="#aj"/><use transform="matrix(0.08641975308641976,0,0,0.08641975308641976,39.66666666666667,0)" xlink:href="#aq"/><use transform="matrix(0.08641975308641976,0,0,0.08641975308641976,48.308641975308646,0)" xlink:href="#aj"/></g><path fill="#263dc7" d="M127-220V0H93v-220H8v-28h204v28h-85" id="as"/><path fill="#263dc7" d="M115-194c55 1 70 41 70 98S169 2 115 4C84 4 66-9 55-30l1 105H24l-1-265h31l2 30c10-21 28-34 59-34zm-8 174c40 0 45-34 45-75s-6-73-45-74c-42 0-51 32-51 76 0 43 10 73 51 73" id="at"/><g id="m"><use transform="matrix(0.08641975308641976,0,0,0.08641975308641976,0,0)" xlink:href="#as"/><use transform="matrix(0.08641975308641976,0,0,0.08641975308641976,15.469135802469134,0)" xlink:href="#aj"/><use transform="matrix(0.08641975308641976,0,0,0.08641975308641976,32.75308641975309,0)" xlink:href="#al"/><use transform="matrix(0.08641975308641976,0,0,0.08641975308641976,58.592592592592595,0)" xlink:href="#at"/><use transform="matrix(0.08641975308641976,0,0,0.08641975308641976,75.87654320987654,0)" xlink:href="#ag"/><use transform="matrix(0.08641975308641976,0,0,0.08641975308641976,82.70370370370371,0)" xlink:href="#ak"/></g><path fill="#263dc7" d="M33 0v-248h34V0H33" id="au"/><path fill="#263dc7" d="M84 4C-5 8 30-112 23-190h32v120c0 31 7 50 39 49 72-2 45-101 50-169h31l1 190h-30c-1-10 1-25-2-33-11 22-28 36-60 37" id="av"/><g id="n"><use transform="matrix(0.08641975308641976,0,0,0.08641975308641976,0,0)" xlink:href="#au"/><use transform="matrix(0.08641975308641976,0,0,0.08641975308641976,8.641975308641976,0)" xlink:href="#ah"/><use transform="matrix(0.08641975308641976,0,0,0.08641975308641976,25.925925925925927,0)" xlink:href="#at"/><use transform="matrix(0.08641975308641976,0,0,0.08641975308641976,43.20987654320989,0)" xlink:href="#av"/><use transform="matrix(0.08641975308641976,0,0,0.08641975308641976,60.49382716049384,0)" xlink:href="#aq"/></g><path fill="#263dc7" d="M232-93c-1 65-40 97-104 97C67 4 28-28 28-90v-158h33c8 89-33 224 67 224 102 0 64-133 71-224h33v155" id="aw"/><path fill="#263dc7" d="M115-194c53 0 69 39 70 98 0 66-23 100-70 100C84 3 66-7 56-30L54 0H23l1-261h32v101c10-23 28-34 59-34zm-8 174c40 0 45-34 45-75 0-40-5-75-45-74-42 0-51 32-51 76 0 43 10 73 51 73" id="ax"/><g id="o"><use transform="matrix(0.08641975308641976,0,0,0.08641975308641976,0,0)" xlink:href="#aw"/><use transform="matrix(0.08641975308641976,0,0,0.08641975308641976,22.38271604938272,0)" xlink:href="#ax"/><use transform="matrix(0.08641975308641976,0,0,0.08641975308641976,39.66666666666667,0)" xlink:href="#aj"/><use transform="matrix(0.08641975308641976,0,0,0.08641975308641976,56.95061728395062,0)" xlink:href="#ap"/></g><path fill="#263dc7" d="M135-143c-3-34-86-38-87 0 15 53 115 12 119 90S17 21 10-45l28-5c4 36 97 45 98 0-10-56-113-15-118-90-4-57 82-63 122-42 12 7 21 19 24 35" id="ay"/><g id="p"><use transform="matrix(0.08641975308641976,0,0,0.08641975308641976,0,0)" xlink:href="#ai"/><use transform="matrix(0.08641975308641976,0,0,0.08641975308641976,22.38271604938272,0)" xlink:href="#aj"/><use transform="matrix(0.08641975308641976,0,0,0.08641975308641976,39.66666666666667,0)" xlink:href="#at"/><use transform="matrix(0.08641975308641976,0,0,0.08641975308641976,56.95061728395062,0)" xlink:href="#av"/><use transform="matrix(0.08641975308641976,0,0,0.08641975308641976,74.23456790123457,0)" xlink:href="#ay"/></g><path fill="#fff" d="M24-248c120-7 223 5 221 122C244-46 201 0 124 0H24v-248zM76-40c74 7 117-18 117-86 0-67-45-88-117-82v168" id="az"/><path fill="#fff" d="M133-34C117-15 103 5 69 4 32 3 11-16 11-54c-1-60 55-63 116-61 1-26-3-47-28-47-18 1-26 9-28 27l-52-2c7-38 36-58 82-57s74 22 75 68l1 82c-1 14 12 18 25 15v27c-30 8-71 5-69-32zm-48 3c29 0 43-24 42-57-32 0-66-3-65 30 0 17 8 27 23 27" id="aA"/><g id="q"><use transform="matrix(0.08641975308641976,0,0,0.08641975308641976,0,0)" xlink:href="#az"/><use transform="matrix(0.08641975308641976,0,0,0.08641975308641976,22.38271604938272,0)" xlink:href="#aA"/><use transform="matrix(0.08641975308641976,0,0,0.08641975308641976,39.66666666666667,0)" xlink:href="#V"/><use transform="matrix(0.08641975308641976,0,0,0.08641975308641976,49.95061728395062,0)" xlink:href="#aA"/></g><path fill="#fff" d="M136-208V0H84v-208H4v-40h212v40h-80" id="aB"/><path fill="#fff" d="M114-157C55-157 80-60 75 0H25v-261h50l-1 109c12-26 28-41 61-42 86-1 58 113 63 194h-50c-7-57 23-157-34-157" id="aC"/><path fill="#fff" d="M135-194c53 0 70 44 70 98 0 56-19 98-73 100-31 1-45-17-59-34 3 33 2 69 2 105H25l-1-265h48c2 10 0 23 3 31 11-24 29-35 60-35zM114-30c33 0 39-31 40-66 0-38-9-64-40-64-56 0-55 130 0 130" id="aD"/><path fill="#fff" d="M85 4C-2 5 27-109 22-190h50c7 57-23 150 33 157 60-5 35-97 40-157h50l1 190h-47c-2-12 1-28-3-38-12 25-28 42-61 42" id="aE"/><g id="r"><use transform="matrix(0.08641975308641976,0,0,0.08641975308641976,0,0)" xlink:href="#aB"/><use transform="matrix(0.08641975308641976,0,0,0.08641975308641976,16.592592592592595,0)" xlink:href="#ab"/><use transform="matrix(0.08641975308641976,0,0,0.08641975308641976,33.876543209876544,0)" xlink:href="#X"/><use transform="matrix(0.08641975308641976,0,0,0.08641975308641976,45.97530864197531,0)" xlink:href="#aC"/><use transform="matrix(0.08641975308641976,0,0,0.08641975308641976,64.90123456790124,0)" xlink:href="#aA"/><use transform="matrix(0.08641975308641976,0,0,0.08641975308641976,82.18518518518519,0)" xlink:href="#aD"/><use transform="matrix(0.08641975308641976,0,0,0.08641975308641976,101.11111111111113,0)" xlink:href="#aE"/><use transform="matrix(0.08641975308641976,0,0,0.08641975308641976,120.03703703703702,0)" xlink:href="#aa"/></g><path fill="#fff" d="M135-194c87-1 58 113 63 194h-50c-7-57 23-157-34-157-59 0-34 97-39 157H25l-1-190h47c2 12-1 28 3 38 12-26 28-41 61-42" id="aF"/><g id="s"><use transform="matrix(0.08641975308641976,0,0,0.08641975308641976,0,0)" xlink:href="#az"/><use transform="matrix(0.08641975308641976,0,0,0.08641975308641976,22.38271604938272,0)" xlink:href="#Z"/><use transform="matrix(0.08641975308641976,0,0,0.08641975308641976,31.024691358024693,0)" xlink:href="#aa"/><use transform="matrix(0.08641975308641976,0,0,0.08641975308641976,48.308641975308646,0)" xlink:href="#Z"/><use transform="matrix(0.08641975308641976,0,0,0.08641975308641976,56.95061728395062,0)" xlink:href="#ac"/><use transform="matrix(0.08641975308641976,0,0,0.08641975308641976,84.60493827160494,0)" xlink:href="#aD"/><use transform="matrix(0.08641975308641976,0,0,0.08641975308641976,103.53086419753086,0)" xlink:href="#aA"/><use transform="matrix(0.08641975308641976,0,0,0.08641975308641976,120.81481481481481,0)" xlink:href="#aF"/></g><path fill="#263dc7" d="M185-189c-5-48-123-54-124 2 14 75 158 14 163 119 3 78-121 87-175 55-17-10-28-26-33-46l33-7c5 56 141 63 141-1 0-78-155-14-162-118-5-82 145-84 179-34 5 7 8 16 11 25" id="aG"/><g id="t"><use transform="matrix(0.08641975308641976,0,0,0.08641975308641976,0,0)" xlink:href="#aG"/><use transform="matrix(0.08641975308641976,0,0,0.08641975308641976,20.740740740740744,0)" xlink:href="#ag"/><use transform="matrix(0.08641975308641976,0,0,0.08641975308641976,27.567901234567906,0)" xlink:href="#al"/><use transform="matrix(0.08641975308641976,0,0,0.08641975308641976,53.407407407407426,0)" xlink:href="#at"/><use transform="matrix(0.08641975308641976,0,0,0.08641975308641976,70.69135802469137,0)" xlink:href="#aj"/><use transform="matrix(0.08641975308641976,0,0,0.08641975308641976,87.97530864197532,0)" xlink:href="#ah"/></g><g id="u"><use transform="matrix(0.08641975308641976,0,0,0.08641975308641976,0,0)" xlink:href="#ar"/><use transform="matrix(0.08641975308641976,0,0,0.08641975308641976,22.38271604938272,0)" xlink:href="#aj"/><use transform="matrix(0.08641975308641976,0,0,0.08641975308641976,39.66666666666667,0)" xlink:href="#aq"/><use transform="matrix(0.08641975308641976,0,0,0.08641975308641976,48.308641975308646,0)" xlink:href="#aj"/></g><g id="v"><use transform="matrix(0.06172839506172839,0,0,0.06172839506172839,0,0)" xlink:href="#ad"/><use transform="matrix(0.06172839506172839,0,0,0.06172839506172839,12.345679012345679,0)" xlink:href="#ae"/><use transform="matrix(0.06172839506172839,0,0,0.06172839506172839,24.691358024691358,0)" xlink:href="#af"/><use transform="matrix(0.06172839506172839,0,0,0.06172839506172839,37.03703703703704,0)" xlink:href="#ag"/><use transform="matrix(0.06172839506172839,0,0,0.06172839506172839,41.91358024691358,0)" xlink:href="#ah"/></g><path fill="#263dc7" d="M160-131c35 5 61 23 61 61C221 17 115-2 30 0v-248c76 3 177-17 177 60 0 33-19 50-47 57zm-97-11c50-1 110 9 110-42 0-47-63-36-110-37v79zm0 115c55-2 124 14 124-45 0-56-70-42-124-44v89" id="aH"/><g id="w"><use transform="matrix(0.06172839506172839,0,0,0.06172839506172839,0,0)" xlink:href="#aH"/><use transform="matrix(0.06172839506172839,0,0,0.06172839506172839,14.814814814814813,0)" xlink:href="#an"/><use transform="matrix(0.06172839506172839,0,0,0.06172839506172839,27.160493827160494,0)" xlink:href="#ao"/><use transform="matrix(0.06172839506172839,0,0,0.06172839506172839,34.50617283950617,0)" xlink:href="#ap"/><use transform="matrix(0.06172839506172839,0,0,0.06172839506172839,46.85185185185185,0)" xlink:href="#aj"/><use transform="matrix(0.06172839506172839,0,0,0.06172839506172839,59.197530864197525,0)" xlink:href="#ay"/><use transform="matrix(0.06172839506172839,0,0,0.06172839506172839,70.30864197530863,0)" xlink:href="#ag"/><use transform="matrix(0.06172839506172839,0,0,0.06172839506172839,75.18518518518518,0)" xlink:href="#ak"/></g><path fill="#263dc7" d="M103-251c84 0 111 97 45 133-19 10-37 24-39 52H78c0-63 77-55 77-114 0-30-21-42-52-43-32 0-53 17-56 46l-32-2c7-45 34-72 88-72zM77 0v-35h34V0H77" id="aI"/><g id="x"><use transform="matrix(0.06172839506172839,0,0,0.06172839506172839,0,0)" xlink:href="#as"/><use transform="matrix(0.06172839506172839,0,0,0.06172839506172839,11.049382716049381,0)" xlink:href="#aj"/><use transform="matrix(0.06172839506172839,0,0,0.06172839506172839,23.39506172839506,0)" xlink:href="#al"/><use transform="matrix(0.06172839506172839,0,0,0.06172839506172839,41.85185185185185,0)" xlink:href="#ax"/><use transform="matrix(0.06172839506172839,0,0,0.06172839506172839,54.197530864197525,0)" xlink:href="#aj"/><use transform="matrix(0.06172839506172839,0,0,0.06172839506172839,66.5432098765432,0)" xlink:href="#ap"/><use transform="matrix(0.06172839506172839,0,0,0.06172839506172839,78.88888888888889,0)" xlink:href="#aI"/></g><path fill="#263dc7" d="M146-102V0H94v-102L6-248h54l60 105 60-105h54" id="aJ"/><path fill="#263dc7" d="M133-34C117-15 103 5 69 4 32 3 11-16 11-54c-1-60 55-63 116-61 1-26-3-47-28-47-18 1-26 9-28 27l-52-2c7-38 36-58 82-57s74 22 75 68l1 82c-1 14 12 18 25 15v27c-30 8-71 5-69-32zm-48 3c29 0 43-24 42-57-32 0-66-3-65 30 0 17 8 27 23 27" id="aK"/><g id="y"><use transform="matrix(0.06172839506172839,0,0,0.06172839506172839,0,0)" xlink:href="#aJ"/><use transform="matrix(0.06172839506172839,0,0,0.06172839506172839,13.580246913580245,0)" xlink:href="#aK"/></g><path fill="#263dc7" d="M85-194c31 0 48 13 60 33l-1-100h32l1 261h-30c-2-10 0-23-3-31C134-8 116 4 85 4 32 4 16-35 15-94c0-66 23-100 70-100zm9 24c-40 0-46 34-46 75 0 40 6 74 45 74 42 0 51-32 51-76 0-42-9-74-50-73" id="aL"/><path fill="#263dc7" d="M143 0L79-87 56-68V0H24v-261h32v163l83-92h37l-77 82L181 0h-38" id="aM"/><g id="z"><use transform="matrix(0.06172839506172839,0,0,0.06172839506172839,0,0)" xlink:href="#as"/><use transform="matrix(0.06172839506172839,0,0,0.06172839506172839,12.716049382716047,0)" xlink:href="#ag"/><use transform="matrix(0.06172839506172839,0,0,0.06172839506172839,17.592592592592588,0)" xlink:href="#aL"/><use transform="matrix(0.06172839506172839,0,0,0.06172839506172839,29.938271604938265,0)" xlink:href="#aj"/><use transform="matrix(0.06172839506172839,0,0,0.06172839506172839,42.28395061728394,0)" xlink:href="#aM"/></g><g id="A"><use transform="matrix(0.06172839506172839,0,0,0.06172839506172839,0,0)" xlink:href="#aw"/><use transform="matrix(0.06172839506172839,0,0,0.06172839506172839,15.987654320987653,0)" xlink:href="#ax"/><use transform="matrix(0.06172839506172839,0,0,0.06172839506172839,28.333333333333332,0)" xlink:href="#aj"/><use transform="matrix(0.06172839506172839,0,0,0.06172839506172839,40.67901234567901,0)" xlink:href="#ap"/><use transform="matrix(0.06172839506172839,0,0,0.06172839506172839,53.02469135802469,0)" xlink:href="#aI"/></g><g id="B"><use transform="matrix(0.06172839506172839,0,0,0.06172839506172839,0,0)" xlink:href="#ai"/><use transform="matrix(0.06172839506172839,0,0,0.06172839506172839,15.987654320987653,0)" xlink:href="#aj"/><use transform="matrix(0.06172839506172839,0,0,0.06172839506172839,28.333333333333332,0)" xlink:href="#at"/><use transform="matrix(0.06172839506172839,0,0,0.06172839506172839,40.67901234567901,0)" xlink:href="#av"/><use transform="matrix(0.06172839506172839,0,0,0.06172839506172839,53.02469135802469,0)" xlink:href="#ay"/><use transform="matrix(0.06172839506172839,0,0,0.06172839506172839,64.1358024691358,0)" xlink:href="#aI"/></g><path fill="#263dc7" d="M137-103V0h-34v-103L8-248h37l75 118 75-118h37" id="aN"/><g id="C"><use transform="matrix(0.06172839506172839,0,0,0.06172839506172839,0,0)" xlink:href="#aN"/><use transform="matrix(0.06172839506172839,0,0,0.06172839506172839,13.148148148148147,0)" xlink:href="#aj"/></g><path fill="#263dc7" d="M143 4C61 4 22-44 18-125c-5-107 100-154 193-111 17 8 29 25 37 43l-32 9c-13-25-37-40-76-40-61 0-88 39-88 99 0 61 29 100 91 101 35 0 62-11 79-27v-45h-74v-28h105v86C228-13 192 4 143 4" id="aO"/><g id="D"><use transform="matrix(0.06172839506172839,0,0,0.06172839506172839,0,0)" xlink:href="#aO"/><use transform="matrix(0.06172839506172839,0,0,0.06172839506172839,17.28395061728395,0)" xlink:href="#aj"/><use transform="matrix(0.06172839506172839,0,0,0.06172839506172839,29.629629629629626,0)" xlink:href="#af"/><use transform="matrix(0.06172839506172839,0,0,0.06172839506172839,41.9753086419753,0)" xlink:href="#aj"/><use transform="matrix(0.06172839506172839,0,0,0.06172839506172839,54.32098765432098,0)" xlink:href="#ak"/></g></defs></g></svg>