<svg xmlns="http://www.w3.org/2000/svg" xmlns:xlink="http://www.w3.org/1999/xlink" xmlns:lucid="lucid" width="2026" height="1239"><g transform="translate(-761 -263)" lucid:page-tab-id="nmNHdLtLpE1T"><path d="M912.27 432.43v-55a8 8 0 0 1 8-8H2644.8a8 8 0 0 1 8 8v55z" stroke="#263dc7" stroke-width="2" fill="#f2f3f5"/><path d="M912.27 495.43v-63h886.87v63M1799.14 495.43v-63h853.66v63" stroke="#263dc7" stroke-width="2" fill="#263dc7"/><path d="M1799.14 1371H920.27a8 8 0 0 1-8-8V495.43h886.87zM2652.8 495.43V1363a8 8 0 0 1-8 8h-845.66V495.43z" stroke="#263dc7" stroke-width="2" fill="#fff"/><use xlink:href="#a" transform="matrix(1,0,0,1,912.2725014130087,369.43066983632264) translate(650.7777777777778 39.5)"/><use xlink:href="#b" transform="matrix(1,0,0,1,912.2725014130087,369.43066983632264) translate(806.0000000000001 39.5)"/><use xlink:href="#c" transform="matrix(1,0,0,1,912.2725014130087,369.43066983632264) translate(976.8888888888889 39.5)"/><use xlink:href="#d" transform="matrix(1,0,0,1,912.2725014130087,432.43066983632264) translate(391.44444444444446 39.5)"/><use xlink:href="#e" transform="matrix(1,0,0,1,1799.1384921844478,432.43066983632264) translate(361.5 39.5)"/><path d="M1390.22 574.58c0 19.23-15.6 34.82-34.83 34.82-19.24 0-34.83-15.6-34.83-34.82 0-19.24 15.6-34.83 34.82-34.83s34.82 15.6 34.82 34.83z" stroke="#282c33"/><g filter="url(#f)"><path d="M1223.02 675.4c-10.78 0-19.52 8.75-19.52 19.52v58.55c0 10.77 8.74 19.5 19.52 19.5h264.75c10.78 0 19.5-8.73 19.5-19.5v-58.55c0-10.77-8.72-19.5-19.5-19.5z" stroke="#263dc7" stroke-width="3" fill="#fff"/><use xlink:href="#g" transform="matrix(1,0,0,1,1211.5029963126372,683.4115518120175) translate(106.01851851851852 48.82222222222222)"/></g><path d="M1355.4 831.98l58.83 58.84-58.84 58.84-58.85-58.84z" stroke="#000" stroke-opacity="0" stroke-width="3" fill="#fe3230"/><g filter="url(#f)"><path d="M1223.02 1008.66c-10.78 0-19.52 8.74-19.52 19.5v58.55c0 10.8 8.74 19.53 19.52 19.53h264.75c10.78 0 19.5-8.74 19.5-19.52v-58.53c0-10.78-8.72-19.5-19.5-19.5z" stroke="#263dc7" stroke-width="3" fill="#fff"/><use xlink:href="#h" transform="matrix(1,0,0,1,1211.5029963126735,1016.6579760533259) translate(99.19135802469135 30.155555555555548)"/><use xlink:href="#i" transform="matrix(1,0,0,1,1211.5029963126735,1016.6579760533259) translate(55.93827160493828 67.4888888888889)"/></g><path d="M1354.52 611.34v41.95" stroke="#263dc7" stroke-width="3" fill="none"/><path d="M1355.4 609.9l.6-.04v1.5h-2.95v-1.63z" stroke="#263dc7" stroke-width=".05" fill="#263dc7"/><path d="M1354.52 669.06l-4.63-14.27h9.26z" stroke="#263dc7" stroke-width="3" fill="#263dc7"/><path d="M1355.4 775.98v35.38" stroke="#263dc7" stroke-width="3" fill="none"/><path d="M1356.87 776.02h-2.95v-1.54h2.95z" stroke="#263dc7" stroke-width=".05" fill="#263dc7"/><path d="M1355.4 827.13l-4.64-14.27h9.27z" stroke="#263dc7" stroke-width="3" fill="#263dc7"/><path d="M1139.86 1045.38l.13 1.7.38 1.6.63 1.54.87 1.4 1.07 1.26 1.26 1.07 1.4.87 1.53.63 1.6.38 1.7.14h30.95v2.95h-31.06l-2.05-.16-2.05-.5-1.96-.8-1.8-1.1-1.6-1.4-1.38-1.6-1.1-1.8-.82-1.95-.5-2.05-.15-2.05v-63.14h2.96zm155.2-153.1h-144.62l-1.7.15-1.6.38-1.53.65-1.4.86-1.26 1.08-1.07 1.26-.86 1.4-.62 1.53-.4 1.6-.12 1.7v52.82h-2.95v-52.94l.17-2.05.5-2.05.8-1.95 1.1-1.8 1.38-1.6 1.6-1.4 1.8-1.1 1.97-.8 2.05-.5 2.06-.16h144.72z" stroke="#263dc7" stroke-width=".05" fill="#263dc7"/><path d="M1296.55 890.82l1.48 1.47h-3v-2.96h3z" fill="#263dc7"/><path stroke="#263dc7" stroke-width=".05" fill="#263dc7"/><path d="M1197.15 1057.44l-14.27 4.64v-9.27z" fill="#263dc7"/><path d="M1201.92 1057.44l-20.5 6.67v-13.32zm-17.56 2.6l8.02-2.6-8.02-2.6z" stroke="#263dc7" stroke-width=".05" fill="#263dc7"/><use xlink:href="#j" transform="matrix(1,0,0,1,1068.135600248025,955.6897135887094) translate(0 17.77777777777778)"/><use xlink:href="#k" transform="matrix(1,0,0,1,1068.135600248025,955.6897135887094) translate(60.4320987654321 17.77777777777778)"/><path d="M1584.35 878.88l-.16 2.05-.5 2.06-.8 1.94-1.12 1.8-1.37 1.6-1.6 1.38-1.8 1.1-1.96.82-2.06.5-2.05.15h-155.2v-2.96h155.1l1.7-.13 1.6-.38 1.52-.63 1.4-.87 1.27-1.07 1.07-1.26.85-1.4.63-1.53.4-1.6.12-1.7v-52.3h2.95zm-11.37-156l2.06.5 1.95.8 1.8 1.1 1.6 1.38 1.38 1.6 1.1 1.82.8 1.95.5 2.06.17 2.04v63.68h-2.95v-63.57l-.13-1.7-.4-1.6-.62-1.53-.86-1.4-1.1-1.26-1.24-1.08-1.4-.86-1.53-.63-1.6-.4-1.7-.13h-41.43v-2.95h41.53z" stroke="#263dc7" stroke-width=".05" fill="#263dc7"/><path d="M1415.77 892.3h-3l1.46-1.48-1.47-1.48h3z" fill="#263dc7"/><path stroke="#263dc7" stroke-width=".05" fill="#263dc7"/><path d="M1527.9 728.83l-14.26-4.63 14.26-4.64z" fill="#263dc7"/><path d="M1529.38 730.86l-20.52-6.66 20.52-6.67zm-10.97-6.66l8.03 2.6v-5.2z" stroke="#263dc7" stroke-width=".05" fill="#263dc7"/><use xlink:href="#j" transform="matrix(1,0,0,1,1523.060643685677,799.8150087964796) translate(0 17.77777777777778)"/><use xlink:href="#l" transform="matrix(1,0,0,1,1523.060643685677,799.8150087964796) translate(60.4320987654321 17.77777777777778)"/><g filter="url(#f)"><path d="M2093.6 1008.66c-10.78 0-19.52 8.74-19.52 19.5v58.55c0 10.8 8.74 19.53 19.5 19.53h264.76c10.78 0 19.52-8.74 19.52-19.52v-58.53c0-10.78-8.74-19.5-19.52-19.5z" stroke="#263dc7" stroke-width="3" fill="#fff"/><use xlink:href="#m" transform="matrix(1,0,0,1,2082.078582996173,1016.6579760533059) translate(68.98765432098766 30.155555555555548)"/><use xlink:href="#n" transform="matrix(1,0,0,1,2082.078582996173,1016.6579760533059) translate(156.87654320987656 30.155555555555548)"/><use xlink:href="#i" transform="matrix(1,0,0,1,2082.078582996173,1016.6579760533059) translate(55.93827160493828 67.4888888888889)"/></g><path d="M1510.28 1057.44h541.68" stroke="#263dc7" stroke-width="3" fill="none"/><path d="M1510.32 1058.92h-1.54v-2.95h1.54z" stroke="#263dc7" stroke-width=".05" fill="#263dc7"/><path d="M2067.72 1057.44l-14.26 4.64v-9.27z" stroke="#263dc7" stroke-width="3" fill="#263dc7"/><path d="M2260.48 1256.68c0 19.06-15.45 34.5-34.5 34.5-19.07 0-34.52-15.44-34.52-34.5 0-19.06 15.45-34.5 34.5-34.5 19.07 0 34.52 15.44 34.52 34.5z" stroke="#333" fill="#fff"/><path d="M2246.68 1256.68c0 11.43-9.28 20.7-20.7 20.7-11.45 0-20.72-9.27-20.72-20.7 0-11.44 9.27-20.7 20.7-20.7 11.44 0 20.72 9.26 20.72 20.7z" stroke="#333"/><path d="M2225.97 1109.23v91.82" stroke="#263dc7" stroke-width="3" fill="none"/><path d="M2227.44 1109.27h-2.95v-1.54h2.94z" stroke="#263dc7" stroke-width=".05" fill="#263dc7"/><path d="M2225.97 1216.8l-4.64-14.25h9.27z" stroke="#263dc7" stroke-width="3" fill="#263dc7"/><defs><path fill="#263dc7" d="M183 0l-10-63H79L44 0H-7l138-248h61L234 0h-51zm-14-102l-15-108c-16 38-36 73-55 108h70" id="o"/><path fill="#263dc7" d="M128 0L95-87 70-74 55 0H6l51-261h49L77-111l82-79h56l-83 74L180 0h-52" id="p"/><path fill="#263dc7" d="M72-63c-8 23 5 39 32 30L98-1C54 14 12-6 23-64l18-93H15l7-33h28l24-45h31l-8 45h35l-6 33H90" id="q"/><path fill="#263dc7" d="M50-224l7-37h49l-7 37H50zM6 0l37-190h49L55 0H6" id="r"/><path fill="#263dc7" d="M109 0H50L19-190h51L86-37l77-153h54" id="s"/><path fill="#263dc7" d="M100 10C77 47 50 87-15 72l7-35c37 9 51-18 65-41L20-190h51L89-44l73-146h53" id="t"/><g id="a"><use transform="matrix(0.1111111111111111,0,0,0.1111111111111111,0,0)" xlink:href="#o"/><use transform="matrix(0.1111111111111111,0,0,0.1111111111111111,28.777777777777775,0)" xlink:href="#p"/><use transform="matrix(0.1111111111111111,0,0,0.1111111111111111,51,0)" xlink:href="#q"/><use transform="matrix(0.1111111111111111,0,0,0.1111111111111111,64.22222222222223,0)" xlink:href="#r"/><use transform="matrix(0.1111111111111111,0,0,0.1111111111111111,75.33333333333334,0)" xlink:href="#s"/><use transform="matrix(0.1111111111111111,0,0,0.1111111111111111,97.55555555555557,0)" xlink:href="#r"/><use transform="matrix(0.1111111111111111,0,0,0.1111111111111111,108.66666666666669,0)" xlink:href="#q"/><use transform="matrix(0.1111111111111111,0,0,0.1111111111111111,121.88888888888891,0)" xlink:href="#t"/></g><path fill="#263dc7" d="M250-142C247-53 197 0 108 0H6l48-248c105-5 200 3 196 106zm-49 2c1-57-42-72-103-68L66-40c84 6 135-22 135-100" id="u"/><path fill="#263dc7" d="M166-52c-4 17 5 29 24 23l-3 27c-30 11-74 1-67-34C105-15 91 4 56 4 23 4 3-15 2-49c0-64 63-67 128-67 10-22 3-53-29-45-13 3-22 10-25 24l-46-5c5-64 156-77 153 0-1 33-11 60-17 90zM97-88c-44-9-64 57-19 57 31 0 42-28 47-57H97" id="v"/><path fill="#263dc7" d="M45-171c29-32 103-29 114 14 2-11 5-23 8-33h47L176-2c-3 70-92 96-155 64C9 56 1 42-1 25l50-5c2 28 48 27 63 11 13-13 20-45 21-66-13 20-30 35-62 36-87 3-60-134-26-172zM94-35c41-3 55-43 55-86 0-24-12-39-35-39-43 0-51 48-51 90 0 22 9 37 31 35" id="w"/><path fill="#263dc7" d="M84-151c13-25 34-51 72-40l-8 41C67-170 71-64 56 0H6l36-190h47" id="x"/><path fill="#263dc7" d="M255-194c90 0 29 129 24 194h-49l25-136c-7-39-53-14-60 9-12 38-18 85-28 127h-49l25-136c2-29-39-23-50-7C69-108 68-47 56 0H6l36-190h48c-1 10-6 24-4 32 12-20 27-36 57-36s46 15 50 41c14-21 29-41 62-41" id="y"/><g id="b"><use transform="matrix(0.1111111111111111,0,0,0.1111111111111111,0,0)" xlink:href="#u"/><use transform="matrix(0.1111111111111111,0,0,0.1111111111111111,28.777777777777775,0)" xlink:href="#r"/><use transform="matrix(0.1111111111111111,0,0,0.1111111111111111,39.888888888888886,0)" xlink:href="#v"/><use transform="matrix(0.1111111111111111,0,0,0.1111111111111111,62.11111111111111,0)" xlink:href="#w"/><use transform="matrix(0.1111111111111111,0,0,0.1111111111111111,86.44444444444444,0)" xlink:href="#x"/><use transform="matrix(0.1111111111111111,0,0,0.1111111111111111,102,0)" xlink:href="#v"/><use transform="matrix(0.1111111111111111,0,0,0.1111111111111111,124.22222222222224,0)" xlink:href="#y"/></g><path fill="#263dc7" d="M178-136c88 48 22 151-73 140C49-3 12-15 4-64l51-9c1 50 111 53 115 3-16-63-132-20-133-112 0-93 190-91 199-10l-50 12c-4-41-93-50-97-4 7 38 59 32 89 48" id="z"/><path fill="#263dc7" d="M144-137c-1-29-70-35-71-2 16 41 103 10 103 80C176 9 79 16 32-9 18-17 9-31 4-48l44-6c3 32 80 36 82 1-15-42-103-11-103-82 0-77 157-79 161-8" id="A"/><path fill="#263dc7" d="M212 0h-52l-8-156L82 0H30L17-190h46l2 145 66-145h53l8 145 60-145h47" id="B"/><g id="c"><use transform="matrix(0.1111111111111111,0,0,0.1111111111111111,0,0)" xlink:href="#z"/><use transform="matrix(0.1111111111111111,0,0,0.1111111111111111,26.666666666666664,0)" xlink:href="#r"/><use transform="matrix(0.1111111111111111,0,0,0.1111111111111111,37.77777777777777,0)" xlink:href="#A"/><use transform="matrix(0.1111111111111111,0,0,0.1111111111111111,60,0)" xlink:href="#B"/><use transform="matrix(0.1111111111111111,0,0,0.1111111111111111,91.1111111111111,0)" xlink:href="#v"/></g><path fill="#fff" d="M199 0l-22-63H83L61 0H9l90-248h61L250 0h-51zm-33-102l-36-108c-10 38-24 72-36 108h72" id="C"/><path fill="#fff" d="M147 0L96-86 75-71V0H25v-261h50v150l67-79h53l-66 74L201 0h-54" id="D"/><path fill="#fff" d="M115-3C79 11 28 4 28-45v-112H4v-33h27l15-45h31v45h36v33H77v99c-1 23 16 31 38 25v30" id="E"/><path fill="#fff" d="M110-194c64 0 96 36 96 99 0 64-35 99-97 99-61 0-95-36-95-99 0-62 34-99 96-99zm-1 164c35 0 45-28 45-65 0-40-10-65-43-65-34 0-45 26-45 65 0 36 10 65 43 65" id="F"/><path fill="#fff" d="M135-150c-39-12-60 13-60 57V0H25l-1-190h47c2 13-1 29 3 40 6-28 27-53 61-41v41" id="G"/><g id="d"><use transform="matrix(0.1111111111111111,0,0,0.1111111111111111,0,0)" xlink:href="#C"/><use transform="matrix(0.1111111111111111,0,0,0.1111111111111111,28.777777777777775,0)" xlink:href="#D"/><use transform="matrix(0.1111111111111111,0,0,0.1111111111111111,51,0)" xlink:href="#E"/><use transform="matrix(0.1111111111111111,0,0,0.1111111111111111,64.22222222222223,0)" xlink:href="#F"/><use transform="matrix(0.1111111111111111,0,0,0.1111111111111111,88.55555555555556,0)" xlink:href="#G"/></g><path fill="#fff" d="M169-182c-1-43-94-46-97-3 18 66 151 10 154 114 3 95-165 93-204 36-6-8-10-19-12-30l50-8c3 46 112 56 116 5-17-69-150-10-154-114-4-87 153-88 188-35 5 8 8 18 10 28" id="H"/><path fill="#fff" d="M25-224v-37h50v37H25zM25 0v-190h50V0H25" id="I"/><path fill="#fff" d="M137-138c1-29-70-34-71-4 15 46 118 7 119 86 1 83-164 76-172 9l43-7c4 19 20 25 44 25 33 8 57-30 24-41C81-84 22-81 20-136c-2-80 154-74 161-7" id="J"/><path fill="#fff" d="M185-48c-13 30-37 53-82 52C43 2 14-33 14-96s30-98 90-98c62 0 83 45 84 108H66c0 31 8 55 39 56 18 0 30-7 34-22zm-45-69c5-46-57-63-70-21-2 6-4 13-4 21h74" id="K"/><path fill="#fff" d="M220-157c-53 9-28 100-34 157h-49v-107c1-27-5-49-29-50C55-147 81-57 75 0H25l-1-190h47c2 12-1 28 3 38 10-53 101-56 108 0 13-22 24-43 59-42 82 1 51 116 57 194h-49v-107c-1-25-5-48-29-50" id="L"/><g id="e"><use transform="matrix(0.1111111111111111,0,0,0.1111111111111111,0,0)" xlink:href="#H"/><use transform="matrix(0.1111111111111111,0,0,0.1111111111111111,26.666666666666664,0)" xlink:href="#I"/><use transform="matrix(0.1111111111111111,0,0,0.1111111111111111,37.77777777777777,0)" xlink:href="#J"/><use transform="matrix(0.1111111111111111,0,0,0.1111111111111111,60,0)" xlink:href="#E"/><use transform="matrix(0.1111111111111111,0,0,0.1111111111111111,73.22222222222221,0)" xlink:href="#K"/><use transform="matrix(0.1111111111111111,0,0,0.1111111111111111,95.44444444444443,0)" xlink:href="#L"/></g><path fill="#263dc7" d="M30 0v-248h33v221h125V0H30" id="M"/><path fill="#263dc7" d="M100-194c62-1 85 37 85 99 1 63-27 99-86 99S16-35 15-95c0-66 28-99 85-99zM99-20c44 1 53-31 53-75 0-43-8-75-51-75s-53 32-53 75 10 74 51 75" id="N"/><path fill="#263dc7" d="M177-190C167-65 218 103 67 71c-23-6-38-20-44-43l32-5c15 47 100 32 89-28v-30C133-14 115 1 83 1 29 1 15-40 15-95c0-56 16-97 71-98 29-1 48 16 59 35 1-10 0-23 2-32h30zM94-22c36 0 50-32 50-73 0-42-14-75-50-75-39 0-46 34-46 75s6 73 46 73" id="O"/><path fill="#263dc7" d="M24-231v-30h32v30H24zM24 0v-190h32V0H24" id="P"/><path fill="#263dc7" d="M117-194c89-4 53 116 60 194h-32v-121c0-31-8-49-39-48C34-167 62-67 57 0H25l-1-190h30c1 10-1 24 2 32 11-22 29-35 61-36" id="Q"/><g id="g"><use transform="matrix(0.08641975308641976,0,0,0.08641975308641976,0,0)" xlink:href="#M"/><use transform="matrix(0.08641975308641976,0,0,0.08641975308641976,17.283950617283953,0)" xlink:href="#N"/><use transform="matrix(0.08641975308641976,0,0,0.08641975308641976,34.567901234567906,0)" xlink:href="#O"/><use transform="matrix(0.08641975308641976,0,0,0.08641975308641976,51.851851851851855,0)" xlink:href="#P"/><use transform="matrix(0.08641975308641976,0,0,0.08641975308641976,58.67901234567903,0)" xlink:href="#Q"/></g><filter id="f" filterUnits="objectBoundingBox" x="-.01" y="-.01" width="1.03" height="1.1"><feOffset result="offOut" in="SourceAlpha" dx="3.21" dy="3.83"/><feGaussianBlur result="blurOut" in="offOut" stdDeviation="2.5"/><feColorMatrix result="colorOut" in="blurOut" values="0 0 0 0 0.05960784313725491 0 0 0 0 0.09568627450980392 0 0 0 0 0.3121568627450981 0 0 0 0.4 0"/><feBlend in="SourceGraphic" in2="colorOut"/></filter><path fill="#263dc7" d="M197 0v-115H63V0H30v-248h33v105h134v-105h34V0h-34" id="R"/><path fill="#263dc7" d="M141-36C126-15 110 5 73 4 37 3 15-17 15-53c-1-64 63-63 125-63 3-35-9-54-41-54-24 1-41 7-42 31l-33-3c5-37 33-52 76-52 45 0 72 20 72 64v82c-1 20 7 32 28 27v20c-31 9-61-2-59-35zM48-53c0 20 12 33 32 33 41-3 63-29 60-74-43 2-92-5-92 41" id="S"/><path fill="#263dc7" d="M24 0v-261h32V0H24" id="T"/><path fill="#263dc7" d="M210-169c-67 3-38 105-44 169h-31v-121c0-29-5-50-35-48C34-165 62-65 56 0H25l-1-190h30c1 10-1 24 2 32 10-44 99-50 107 0 11-21 27-35 58-36 85-2 47 119 55 194h-31v-121c0-29-5-49-35-48" id="U"/><g id="h"><use transform="matrix(0.08641975308641976,0,0,0.08641975308641976,0,0)" xlink:href="#R"/><use transform="matrix(0.08641975308641976,0,0,0.08641975308641976,22.38271604938272,0)" xlink:href="#S"/><use transform="matrix(0.08641975308641976,0,0,0.08641975308641976,39.66666666666667,0)" xlink:href="#T"/><use transform="matrix(0.08641975308641976,0,0,0.08641975308641976,46.49382716049383,0)" xlink:href="#S"/><use transform="matrix(0.08641975308641976,0,0,0.08641975308641976,63.777777777777786,0)" xlink:href="#U"/></g><path fill="#263dc7" d="M30-248c87 1 191-15 191 75 0 78-77 80-158 76V0H30v-248zm33 125c57 0 124 11 124-50 0-59-68-47-124-48v98" id="V"/><path fill="#263dc7" d="M100-194c63 0 86 42 84 106H49c0 40 14 67 53 68 26 1 43-12 49-29l28 8c-11 28-37 45-77 45C44 4 14-33 15-96c1-61 26-98 85-98zm52 81c6-60-76-77-97-28-3 7-6 17-6 28h103" id="W"/><path fill="#263dc7" d="M114-163C36-179 61-72 57 0H25l-1-190h30c1 12-1 29 2 39 6-27 23-49 58-41v29" id="X"/><g id="i"><use transform="matrix(0.08641975308641976,0,0,0.08641975308641976,0,0)" xlink:href="#V"/><use transform="matrix(0.08641975308641976,0,0,0.08641975308641976,20.740740740740744,0)" xlink:href="#W"/><use transform="matrix(0.08641975308641976,0,0,0.08641975308641976,38.0246913580247,0)" xlink:href="#T"/><use transform="matrix(0.08641975308641976,0,0,0.08641975308641976,44.85185185185187,0)" xlink:href="#S"/><use transform="matrix(0.08641975308641976,0,0,0.08641975308641976,62.13580246913581,0)" xlink:href="#Q"/><use transform="matrix(0.08641975308641976,0,0,0.08641975308641976,79.41975308641976,0)" xlink:href="#O"/><use transform="matrix(0.08641975308641976,0,0,0.08641975308641976,96.70370370370371,0)" xlink:href="#O"/><use transform="matrix(0.08641975308641976,0,0,0.08641975308641976,113.98765432098767,0)" xlink:href="#S"/><use transform="matrix(0.08641975308641976,0,0,0.08641975308641976,131.27160493827162,0)" xlink:href="#X"/><use transform="matrix(0.08641975308641976,0,0,0.08641975308641976,141.55555555555557,0)" xlink:href="#S"/><use transform="matrix(0.08641975308641976,0,0,0.08641975308641976,158.83950617283952,0)" xlink:href="#Q"/></g><g id="j"><use transform="matrix(0.06172839506172839,0,0,0.06172839506172839,0,0)" xlink:href="#M"/><use transform="matrix(0.06172839506172839,0,0,0.06172839506172839,12.345679012345679,0)" xlink:href="#N"/><use transform="matrix(0.06172839506172839,0,0,0.06172839506172839,24.691358024691358,0)" xlink:href="#O"/><use transform="matrix(0.06172839506172839,0,0,0.06172839506172839,37.03703703703704,0)" xlink:href="#P"/><use transform="matrix(0.06172839506172839,0,0,0.06172839506172839,41.91358024691358,0)" xlink:href="#Q"/></g><path fill="#263dc7" d="M160-131c35 5 61 23 61 61C221 17 115-2 30 0v-248c76 3 177-17 177 60 0 33-19 50-47 57zm-97-11c50-1 110 9 110-42 0-47-63-36-110-37v79zm0 115c55-2 124 14 124-45 0-56-70-42-124-44v89" id="Y"/><path fill="#263dc7" d="M106-169C34-169 62-67 57 0H25v-261h32l-1 103c12-21 28-36 61-36 89 0 53 116 60 194h-32v-121c2-32-8-49-39-48" id="Z"/><path fill="#263dc7" d="M135-143c-3-34-86-38-87 0 15 53 115 12 119 90S17 21 10-45l28-5c4 36 97 45 98 0-10-56-113-15-118-90-4-57 82-63 122-42 12 7 21 19 24 35" id="aa"/><g id="k"><use transform="matrix(0.06172839506172839,0,0,0.06172839506172839,0,0)" xlink:href="#Y"/><use transform="matrix(0.06172839506172839,0,0,0.06172839506172839,14.814814814814813,0)" xlink:href="#W"/><use transform="matrix(0.06172839506172839,0,0,0.06172839506172839,27.160493827160494,0)" xlink:href="#X"/><use transform="matrix(0.06172839506172839,0,0,0.06172839506172839,34.50617283950617,0)" xlink:href="#Z"/><use transform="matrix(0.06172839506172839,0,0,0.06172839506172839,46.85185185185185,0)" xlink:href="#S"/><use transform="matrix(0.06172839506172839,0,0,0.06172839506172839,59.197530864197525,0)" xlink:href="#aa"/><use transform="matrix(0.06172839506172839,0,0,0.06172839506172839,70.30864197530863,0)" xlink:href="#P"/><use transform="matrix(0.06172839506172839,0,0,0.06172839506172839,75.18518518518518,0)" xlink:href="#T"/></g><path fill="#263dc7" d="M143 4C61 4 22-44 18-125c-5-107 100-154 193-111 17 8 29 25 37 43l-32 9c-13-25-37-40-76-40-61 0-88 39-88 99 0 61 29 100 91 101 35 0 62-11 79-27v-45h-74v-28h105v86C228-13 192 4 143 4" id="ab"/><g id="l"><use transform="matrix(0.06172839506172839,0,0,0.06172839506172839,0,0)" xlink:href="#ab"/><use transform="matrix(0.06172839506172839,0,0,0.06172839506172839,17.28395061728395,0)" xlink:href="#S"/><use transform="matrix(0.06172839506172839,0,0,0.06172839506172839,29.629629629629626,0)" xlink:href="#O"/><use transform="matrix(0.06172839506172839,0,0,0.06172839506172839,41.9753086419753,0)" xlink:href="#S"/><use transform="matrix(0.06172839506172839,0,0,0.06172839506172839,54.32098765432098,0)" xlink:href="#T"/></g><path fill="#263dc7" d="M30-248c118-7 216 8 213 122C240-48 200 0 122 0H30v-248zM63-27c89 8 146-16 146-99s-60-101-146-95v194" id="ac"/><path fill="#263dc7" d="M59-47c-2 24 18 29 38 22v24C64 9 27 4 27-40v-127H5v-23h24l9-43h21v43h35v23H59v120" id="ad"/><g id="m"><use transform="matrix(0.08641975308641976,0,0,0.08641975308641976,0,0)" xlink:href="#ac"/><use transform="matrix(0.08641975308641976,0,0,0.08641975308641976,22.38271604938272,0)" xlink:href="#W"/><use transform="matrix(0.08641975308641976,0,0,0.08641975308641976,39.66666666666667,0)" xlink:href="#ad"/><use transform="matrix(0.08641975308641976,0,0,0.08641975308641976,48.308641975308646,0)" xlink:href="#S"/><use transform="matrix(0.08641975308641976,0,0,0.08641975308641976,65.5925925925926,0)" xlink:href="#P"/><use transform="matrix(0.08641975308641976,0,0,0.08641975308641976,72.41975308641976,0)" xlink:href="#T"/></g><g id="n"><use transform="matrix(0.08641975308641976,0,0,0.08641975308641976,0,0)" xlink:href="#V"/><use transform="matrix(0.08641975308641976,0,0,0.08641975308641976,20.740740740740744,0)" xlink:href="#N"/><use transform="matrix(0.08641975308641976,0,0,0.08641975308641976,38.0246913580247,0)" xlink:href="#P"/><use transform="matrix(0.08641975308641976,0,0,0.08641975308641976,44.85185185185187,0)" xlink:href="#Q"/></g></defs></g></svg>