<svg xmlns="http://www.w3.org/2000/svg" xmlns:xlink="http://www.w3.org/1999/xlink" xmlns:lucid="lucid" width="2476" height="1799"><g transform="translate(-263 -114)" lucid:page-tab-id="RWJHUsEewyV6"><g filter="url(#a)"><path d="M485.33 531.32c0 18.1-14.67 32.76-32.76 32.76-18.1 0-32.77-14.67-32.77-32.76 0-18.1 14.67-32.77 32.76-32.77 18.1 0 32.77 14.67 32.77 32.77z" stroke="#263dc7" stroke-width="4" fill="#fff"/><path d="M452.56 564.08v85.74a20.3 20.3 0 0 0 3.27 11.03l64.63 99.8m-67.9-104.83l-67.9 104.84m0-163.82h135.8" stroke="#263dc7" stroke-width="4" fill="none"/><path d="M384.67 504.55a6 6 0 0 1 6-6h123.8a6 6 0 0 1 6 6v272.1a6 6 0 0 1-6 6h-123.8a6 6 0 0 1-6-6z" fill="none"/><use xlink:href="#b" transform="matrix(1,0,0,1,304.66678147901945,760.657995745286) translate(109.19753086419752 24.888888888888893)"/></g><g filter="url(#a)"><path d="M485.33 1236.04c0 18.1-14.67 32.76-32.76 32.76-18.1 0-32.77-14.67-32.77-32.76 0-18.1 14.67-32.76 32.76-32.76 18.1 0 32.77 14.66 32.77 32.76z" stroke="#263dc7" stroke-width="4" fill="#fff"/><path d="M452.56 1268.8v85.74a20.3 20.3 0 0 0 3.27 11.04l64.63 99.8m-67.9-104.84l-67.9 104.84m0-163.82h135.8" stroke="#263dc7" stroke-width="4" fill="none"/><path d="M384.67 1209.28a6 6 0 0 1 6-6h123.8a6 6 0 0 1 6 6v272.1a6 6 0 0 1-6 6h-123.8a6 6 0 0 1-6-6z" fill="none"/><use xlink:href="#c" transform="matrix(1,0,0,1,304.66678147901945,1465.3808533058536) translate(72.72839506172838 24.888888888888893)"/><use xlink:href="#d" transform="matrix(1,0,0,1,304.66678147901945,1465.3808533058536) translate(140.48148148148147 24.888888888888893)"/></g><g filter="url(#e)"><path d="M1164.96 1000c0 71.53-77.32 129.52-172.7 129.52-95.37 0-172.68-58-172.68-129.52 0-71.53 77.3-129.52 172.7-129.52 95.36 0 172.68 58 172.68 129.52z" stroke="#263dc7" stroke-width="3" fill="#fff"/><use xlink:href="#f" transform="matrix(1,0,0,1,819.5786728778658,870.4817156189097) translate(74.1161111111111 118.32638888888889)"/><use xlink:href="#g" transform="matrix(1,0,0,1,819.5786728778658,870.4817156189097) translate(210.40006172839506 118.32638888888889)"/><use xlink:href="#h" transform="matrix(1,0,0,1,819.5786728778658,870.4817156189097) translate(43.04820987654322 155.65972222222223)"/><use xlink:href="#i" transform="matrix(1,0,0,1,819.5786728778658,870.4817156189097) translate(224.35685185185184 155.65972222222223)"/></g><g filter="url(#j)"><path d="M1617.63 1000c0 59.2-50.36 107.2-112.48 107.2-62.12 0-112.47-48-112.47-107.2s50.35-107.2 112.47-107.2 112.47 48 112.47 107.2z" stroke="#263dc7" stroke-width="3" fill="#263dc7"/><use xlink:href="#k" transform="matrix(1,0,0,1,1392.6768819373556,892.7979101752225) translate(70.33216049382716 112.23263888888889)"/></g><g filter="url(#l)"><path d="M2155.34 275.87c0 39.32-79.98 71.2-178.64 71.2-98.66 0-178.64-31.88-178.64-71.2 0-39.3 79.98-71.2 178.64-71.2 98.66 0 178.64 31.9 178.64 71.2z" stroke="#263dc7" stroke-width="3" fill="#fff"/><use xlink:href="#m" transform="matrix(1,0,0,1,1798.0629923050692,204.68372748841583) translate(35.35067901234567 78.51388888888889)"/><use xlink:href="#n" transform="matrix(1,0,0,1,1798.0629923050692,204.68372748841583) translate(226.77043209876544 78.51388888888889)"/></g><g filter="url(#l)"><path d="M2154.5 517.25c0 39.3-79.97 71.2-178.62 71.2-98.66 0-178.64-31.9-178.64-71.2 0-39.32 79.98-71.2 178.64-71.2 98.65 0 178.63 31.88 178.63 71.2z" stroke="#263dc7" stroke-width="3" fill="#fff"/><use xlink:href="#o" transform="matrix(1,0,0,1,1797.2391371824606,446.0598053488683) translate(43.04203703703705 60.63888888888889)"/><use xlink:href="#p" transform="matrix(1,0,0,1,1797.2391371824606,446.0598053488683) translate(153.4864814814815 60.63888888888889)"/><use xlink:href="#q" transform="matrix(1,0,0,1,1797.2391371824606,446.0598053488683) translate(224.26425925925926 60.63888888888889)"/><use xlink:href="#r" transform="matrix(1,0,0,1,1797.2391371824606,446.0598053488683) translate(146.2519135802469 97.97222222222223)"/></g><g filter="url(#l)"><path d="M2154.8 758.62c0 39.32-80 71.2-178.65 71.2-98.66 0-178.64-31.88-178.64-71.2 0-39.3 80-71.18 178.65-71.18 98.66 0 178.64 31.87 178.64 71.18z" stroke="#263dc7" stroke-width="3" fill="#fff"/><use xlink:href="#s" transform="matrix(1,0,0,1,1797.5137555566635,687.4358832093209) translate(56.78277777777778 60.63888888888889)"/><use xlink:href="#t" transform="matrix(1,0,0,1,1797.5137555566635,687.4358832093209) translate(234.63462962962961 60.63888888888889)"/><use xlink:href="#d" transform="matrix(1,0,0,1,1797.5137555566635,687.4358832093209) translate(137.60993827160493 97.97222222222223)"/></g><g filter="url(#l)"><path d="M2155.06 1000c0 39.32-79.98 71.2-178.63 71.2-98.66 0-178.64-31.88-178.64-71.2 0-39.32 79.97-71.2 178.63-71.2 98.65 0 178.63 31.88 178.63 71.2z" stroke="#263dc7" stroke-width="3" fill="#fff"/><use xlink:href="#s" transform="matrix(1,0,0,1,1797.7883739308663,928.8119610697734) translate(56.78277777777778 60.63888888888889)"/><use xlink:href="#t" transform="matrix(1,0,0,1,1797.7883739308663,928.8119610697734) translate(234.63462962962961 60.63888888888889)"/><use xlink:href="#u" transform="matrix(1,0,0,1,1797.7883739308663,928.8119610697734) translate(105.33216049382716 97.97222222222223)"/><use xlink:href="#v" transform="matrix(1,0,0,1,1797.7883739308663,928.8119610697734) translate(200.30746913580248 97.97222222222223)"/></g><g filter="url(#l)"><path d="M2153.7 1241.38c0 39.3-80 71.18-178.65 71.18-98.66 0-178.63-31.87-178.63-71.18 0-39.32 79.97-71.2 178.63-71.2s178.64 31.88 178.64 71.2z" stroke="#263dc7" stroke-width="3" fill="#fff"/><use xlink:href="#w" transform="matrix(1,0,0,1,1796.415282059852,1170.188038930226) translate(48.14080246913581 60.63888888888889)"/><use xlink:href="#t" transform="matrix(1,0,0,1,1796.415282059852,1170.188038930226) translate(243.2766049382716 60.63888888888889)"/><use xlink:href="#x" transform="matrix(1,0,0,1,1796.415282059852,1170.188038930226) translate(45.22722222222224 97.97222222222223)"/><use xlink:href="#d" transform="matrix(1,0,0,1,1796.415282059852,1170.188038930226) translate(229.99265432098767 97.97222222222223)"/></g><g filter="url(#l)"><path d="M2153.97 1482.75c0 39.32-79.98 71.2-178.64 71.2-98.66 0-178.64-31.88-178.64-71.2 0-39.3 79.97-71.2 178.63-71.2s178.64 31.9 178.64 71.2z" stroke="#263dc7" stroke-width="3" fill="#fff"/><use xlink:href="#s" transform="matrix(1,0,0,1,1796.6899004340548,1411.5641167906786) translate(58.51117283950619 60.63888888888889)"/><use xlink:href="#y" transform="matrix(1,0,0,1,1796.6899004340548,1411.5641167906786) translate(236.36302469135802 60.63888888888889)"/><use xlink:href="#x" transform="matrix(1,0,0,1,1796.6899004340548,1411.5641167906786) translate(45.22722222222224 97.97222222222223)"/><use xlink:href="#d" transform="matrix(1,0,0,1,1796.6899004340548,1411.5641167906786) translate(229.99265432098767 97.97222222222223)"/></g><g filter="url(#l)"><path d="M2154.24 1724.13c0 39.3-79.98 71.2-178.64 71.2-98.66 0-178.63-31.9-178.63-71.2 0-39.32 79.97-71.2 178.63-71.2s178.64 31.88 178.64 71.2z" stroke="#263dc7" stroke-width="3" fill="#fff"/><use xlink:href="#s" transform="matrix(1,0,0,1,1796.9645188082577,1652.9401946511312) translate(29.171666666666663 60.63888888888889)"/><use xlink:href="#z" transform="matrix(1,0,0,1,1796.9645188082577,1652.9401946511312) translate(207.0235185185185 60.63888888888889)"/><use xlink:href="#A" transform="matrix(1,0,0,1,1796.9645188082577,1652.9401946511312) translate(53.86919753086421 97.97222222222223)"/><use xlink:href="#d" transform="matrix(1,0,0,1,1796.9645188082577,1652.9401946511312) translate(221.3506790123457 97.97222222222223)"/></g><g filter="url(#a)"><path d="M2591.28 290.5c0 18.1-14.67 32.76-32.77 32.76-18.08 0-32.75-14.67-32.75-32.76 0-18.1 14.67-32.77 32.76-32.77 18.1 0 32.78 14.67 32.78 32.77z" stroke="#263dc7" stroke-width="4" fill="#fff"/><path d="M2558.5 323.26V409a20.3 20.3 0 0 0 3.28 11.03l64.63 99.8M2558.5 415l-67.88 104.84m0-163.82h135.8" stroke="#263dc7" stroke-width="4" fill="none"/><path d="M2490.62 263.73a6 6 0 0 1 6-6h123.8a6 6 0 0 1 6 6v272.1a6 6 0 0 1-6 6h-123.8a6 6 0 0 1-6-6z" fill="none"/><use xlink:href="#B" transform="matrix(1,0,0,1,2410.6176647205216,519.8394822002037) translate(104.01234567901234 24.888888888888893)"/></g><g filter="url(#a)"><path d="M2591.28 1132.1c0 18.08-14.67 32.75-32.77 32.75-18.08 0-32.75-14.67-32.75-32.76 0-18.1 14.67-32.78 32.76-32.78 18.1 0 32.78 14.67 32.78 32.77z" stroke="#263dc7" stroke-width="4" fill="#fff"/><path d="M2558.5 1164.85v85.74a20.3 20.3 0 0 0 3.28 11.02l64.63 99.8m-67.9-104.83l-67.88 104.83m0-163.82h135.8" stroke="#263dc7" stroke-width="4" fill="none"/><path d="M2490.62 1105.32a6 6 0 0 1 6-6h123.8a6 6 0 0 1 6 6v272.1a6 6 0 0 1-6 6h-123.8a6 6 0 0 1-6-6z" fill="none"/><use xlink:href="#C" transform="matrix(1,0,0,1,2410.6176647205216,1361.4288581344467) translate(88.41358024691358 24.888888888888893)"/><use xlink:href="#D" transform="matrix(1,0,0,1,2410.6176647205216,1361.4288581344467) translate(166.10493827160494 24.888888888888893)"/></g><path d="M2488.62 399.8h-152.9a12 12 0 0 1-12-12v-99.93a12 12 0 0 0-12-12h-152.88" stroke="#263dc7" stroke-width="4" fill="none"/><path d="M2493.62 401.76h-5.05v-3.95h5.05zM2158.9 277.85h-2.13l.04-.7.04-1.27v-.65l-.06-1.27v-.06h2.1z" stroke="#263dc7" stroke-width=".05" fill="#263dc7"/><path d="M2488.62 399.8h-153.14a12 12 0 0 0-12 12v93.45a12 12 0 0 1-12 12H2158" stroke="#263dc7" stroke-width="4" fill="none"/><path d="M2493.62 401.76h-5.05v-3.95h5.05zM2158.07 519.22h-2.13l.05-.7v-1.92l-.05-1.26v-.07h2.12z" stroke="#263dc7" stroke-width=".05" fill="#263dc7"/><path d="M2488.62 1241.38h-153.17a12 12 0 0 1-12-12V770.62a12 12 0 0 0-12-12H2158.3" stroke="#263dc7" stroke-width="4" fill="none"/><path d="M2493.62 1243.35h-5.05v-3.95h5.05zM2158.34 760.6h-2.12l.04-.7.03-1.27-.02-.65-.05-1.27v-.05h2.1z" stroke="#263dc7" stroke-width=".05" fill="#263dc7"/><path d="M2488.62 1241.38h-153.14a12 12 0 0 1-12-12V1012a12 12 0 0 0-12-12h-152.92" stroke="#263dc7" stroke-width="4" fill="none"/><path d="M2493.62 1243.35h-5.05v-3.95h5.05zM2158.6 1001.98h-2.1l.04-.7.02-1.27v-.65l-.06-1.26V998h2.1z" stroke="#263dc7" stroke-width=".05" fill="#263dc7"/><path d="M2488.62 1241.38H2157.2" stroke="#263dc7" stroke-width="4" fill="none"/><path d="M2493.62 1243.35h-5.05v-3.95h5.05zM2157.24 1243.35h-2.12l.04-.7.03-1.27-.02-.65-.05-1.27v-.06h2.1z" stroke="#263dc7" stroke-width=".05" fill="#263dc7"/><path d="M2488.62 1241.38h-153.14a12 12 0 0 0-12 12v217.37a12 12 0 0 1-12 12h-154" stroke="#263dc7" stroke-width="4" fill="none"/><path d="M2493.62 1243.35h-5.05v-3.95h5.05zM2157.52 1484.73h-2.13l.04-.7.03-1.27v-.65l-.06-1.26v-.06h2.12z" stroke="#263dc7" stroke-width=".05" fill="#263dc7"/><path d="M2488.62 1241.38h-153.44a12 12 0 0 0-12 12v458.75a12 12 0 0 1-12 12h-153.44" stroke="#263dc7" stroke-width="4" fill="none"/><path d="M2493.62 1243.35h-5.05v-3.95h5.05zM2157.8 1726.1h-2.13l.04-.7.04-1.26v-.66l-.06-1.26v-.07h2.1z" stroke="#263dc7" stroke-width=".05" fill="#263dc7"/><path d="M816.08 1000H656.03a12 12 0 0 1-12-12V652.6a12 12 0 0 0-12-12H522.46" stroke="#263dc7" stroke-width="4" fill="none"/><path d="M818.08 1000l.02 1.98h-2.07V998h2.1zM522.5 642.58h-5.04v-3.95h5.05z" stroke="#263dc7" stroke-width=".05" fill="#263dc7"/><path d="M816.08 1000H656.03a12 12 0 0 0-12 12v321.33a12 12 0 0 1-12 12H522.46" stroke="#263dc7" stroke-width="4" fill="none"/><path d="M818.08 1000l.02 1.98h-2.07V998h2.1zM522.5 1347.3h-5.04v-3.95h5.05zM1506.63 870.68h-2.95V838.3h2.95zm0-64.76h-2.95v-64.75h2.95zm0-97.13h-2.95v-64.77h2.95zm0-97.15h-2.95V546.9h2.95zm0-97.13h-2.95v-63.17h2.95zm0-97.14h-2.95v-64.75h2.95zm41.4-140.03h-30.82l-1.7.13-1.6.4-1.53.62-1.4.86-1.26 1.07-1.06 1.26-.86 1.4-.63 1.52-.4 1.6-.12 1.7v32.33h-2.95V287.8l.16-2.04.5-2.05.8-1.95 1.1-1.8 1.38-1.6 1.6-1.38 1.8-1.1 1.96-.82 2.06-.5 2.05-.15h30.93zm92.64 0h-61.76v-2.95h61.77zm92.63 0h-61.75v-2.95h61.76zm61.76 0h-30.88v-2.95h30.88z" stroke="#263dc7" stroke-width=".05" fill="#263dc7"/><path d="M1505.15 886.44l-4.63-14.26h9.27z" fill="#263dc7"/><path d="M1505.15 891.22l-6.67-20.52h13.34zm-2.6-17.57l2.6 8.02 2.6-8.02z" stroke="#263dc7" stroke-width=".05" fill="#263dc7"/><path d="M1796.6 274.6l-.04 1.26v.66l.04.83h-1.58v-2.95h1.58z" fill="#263dc7"/><path stroke="#263dc7" stroke-width=".05" fill="#263dc7"/><use xlink:href="#E" transform="matrix(1,0,0,1,1443.4908772456597,424.4120727683485) translate(0.005000000000002558 17.955555555555552)"/><path d="M1532.7 870.27h-25.73l-.06.03-.05.02-.05.03-.05.04-.04.04-.03.06-.02.05-.02.07v.17l-2.95-.24.03-.4.14-.52.2-.5.27-.44.36-.4.4-.34.45-.28.5-.2.5-.12.47-.04h25.72zm64.77-13.4l-.16 2.04-.48 2.06-.8 1.96-1.12 1.8-1.37 1.6-1.6 1.38-1.8 1.1-1.97.82-2.05.5-2.04.15h-25.72v-2.95h25.6l1.7-.13 1.6-.4 1.54-.63 1.4-.86 1.26-1.06 1.07-1.26.87-1.4.64-1.53.4-1.6.13-1.7V829.5h2.94zm0-54.66h-2.94v-54.6h2.94zm0-81.88h-2.94v-54.6h2.94zm0-83.96h-2.94v-52.52h2.94zm41.57-117.64h-30.98l-1.7.14-1.6.38-1.54.63-1.4.87-1.26 1.07-1.07 1.26-.87 1.4-.64 1.54-.4 1.6-.13 1.7v27.24h-2.94V529.2l.16-2.06.48-2.06.8-1.95 1.12-1.8 1.37-1.6 1.6-1.4 1.8-1.1 1.97-.8 2.05-.5 2.04-.16h31.1zm93.12 0h-62.08v-2.95h62.08zm62.08 0h-31.04v-2.95h31.04z" stroke="#263dc7" stroke-width=".05" fill="#263dc7"/><path d="M1505.15 886.44l-4.63-14.26h9.27z" fill="#263dc7"/><path d="M1505.15 891.22l-6.67-20.52h13.34zm-2.6-17.57l2.6 8.02 2.6-8.02z" stroke="#263dc7" stroke-width=".05" fill="#263dc7"/><path d="M1795.77 515.97l-.03 1.27v.65l.04.82h-1.58v-2.95h1.58z" fill="#263dc7"/><path stroke="#263dc7" stroke-width=".05" fill="#263dc7"/><use xlink:href="#E" transform="matrix(1,0,0,1,1534.34012345679,636.3612854710093) translate(0.005000000000002558 17.955555555555552)"/><path d="M1646.05 1001.48h-6.3v-2.96h6.3zm33.42-14.95h-2.94v-34.76h2.94zm0-71h-2.94v-52.32h2.94zm45.37-155.43h-34.78l-1.7.13-1.6.4-1.54.62-1.4.86-1.26 1.08-1.07 1.26-.87 1.4-.64 1.53-.4 1.6-.13 1.7v36.18h-2.94v-36.28l.16-2.06.48-2.04.8-1.96 1.12-1.8 1.37-1.6 1.6-1.38 1.8-1.1 1.97-.82 2.05-.5 2.04-.15h34.9zm69.67 0h-34.82v-2.95h34.83z" stroke="#263dc7" stroke-width=".05" fill="#263dc7"/><path d="M1638.24 1004.63l-14.26-4.63 14.26-4.63z" fill="#263dc7"/><path d="M1639.72 1006.66l-20.5-6.66 20.5-6.66zm-10.97-6.66l8.02 2.6v-5.2z" stroke="#263dc7" stroke-width=".05" fill="#263dc7"/><path d="M1796.04 757.35l-.03 1.27.02.65.04.83h-1.6v-2.95h1.6z" fill="#263dc7"/><path stroke="#263dc7" stroke-width=".05" fill="#263dc7"/><use xlink:href="#E" transform="matrix(1,0,0,1,1616.34012345679,836.2761240450764) translate(0.005000000000002558 17.955555555555552)"/><path d="M1646.05 1001.48h-6.3v-2.96h6.3zm148.74 0h-25.43v-2.96h25.42z" stroke="#263dc7" stroke-width=".05" fill="#263dc7"/><path d="M1638.24 1004.63l-14.26-4.63 14.26-4.63z" fill="#263dc7"/><path d="M1639.72 1006.66l-20.5-6.66 20.5-6.66zm-10.97-6.66l8.02 2.6v-5.2z" stroke="#263dc7" stroke-width=".05" fill="#263dc7"/><path d="M1796.32 998.72l-.03 1.27v.65l.03.83h-1.58v-2.96h1.58z" fill="#263dc7"/><path stroke="#263dc7" stroke-width=".05" fill="#263dc7"/><use xlink:href="#E" transform="matrix(1,0,0,1,1646.046603001922,986.5333333333333) translate(0.005000000000002558 17.955555555555552)"/><path d="M1679.47 1229.32l.14 1.7.4 1.6.63 1.53.86 1.4 1.06 1.27 1.26 1.07 1.4.85 1.53.63 1.6.4 1.7.12h34.42v2.95h-34.53l-2.05-.16-2.07-.5-1.95-.8-1.8-1.12-1.6-1.37-1.38-1.6-1.1-1.8-.82-1.96-.5-2.06-.15-2.05v-36.28h2.94zm113.94 13.53h-34.46v-2.95h34.47zm-113.93-106.6h-2.94v-51.8h2.94zm0-88.02h-2.94v-34.76h2.94zm-39.73-46.75v-2.96h6.3v2.96z" stroke="#263dc7" stroke-width=".05" fill="#263dc7"/><path d="M1638.24 1004.63l-14.26-4.63 14.26-4.63z" fill="#263dc7"/><path d="M1639.72 1006.66l-20.5-6.66 20.5-6.66zm-10.97-6.66l8.02 2.6v-5.2z" stroke="#263dc7" stroke-width=".05" fill="#263dc7"/><path d="M1794.94 1240.1l-.03 1.27.02.65.04.83h-1.58v-2.95h1.57z" fill="#263dc7"/><path stroke="#263dc7" stroke-width=".05" fill="#263dc7"/><use xlink:href="#E" transform="matrix(1,0,0,1,1616.34012345679,1136.241305873184) translate(0.005000000000002558 17.955555555555552)"/><path d="M1597.47 1470.7l.14 1.7.4 1.6.63 1.53.86 1.4 1.06 1.26 1.26 1.06 1.4.87 1.53.63 1.6.38 1.7.14h30.9v2.95h-31l-2.06-.16-2.07-.5-1.95-.8-1.8-1.1-1.6-1.4-1.38-1.6-1.1-1.8-.82-1.95-.5-2.06-.15-2.05v-27.05h2.94zm134.32 13.53h-61.9v-2.95h61.9zm61.9 0h-30.96v-2.95h30.95zm-196.23-67.5h-2.94v-53.37h2.94zm0-81h-2.94v-54.02h2.94zm0-81.03h-2.94v-54h2.94zm-11.36-121.34l2.07.5 1.95.8 1.8 1.1 1.6 1.38 1.38 1.6 1.1 1.82.82 1.95.5 2.07.15 2.05v27.06h-2.94v-26.95l-.14-1.7-.4-1.6-.63-1.53-.86-1.4-1.06-1.26-1.26-1.07-1.4-.87-1.53-.63-1.6-.38-1.7-.15h-24.45v-2.95h24.56zm-79.42-3.43l.14.6.23.55.32.52.4.46.46.4.52.32.56.23.6.15.66.05H1535v2.95h-24.55l-1-.08-1.06-.25-1-.4-.9-.57-.83-.7-.7-.8-.55-.92-.4-1-.26-1.04-.08-.96 2.94-.23z" stroke="#263dc7" stroke-width=".05" fill="#263dc7"/><path d="M1509.8 1127.82h-9.28l4.63-14.26z" fill="#263dc7"/><path d="M1511.82 1129.3h-13.34l6.67-20.52zm-9.27-2.95h5.2l-2.6-8.02z" stroke="#263dc7" stroke-width=".05" fill="#263dc7"/><path d="M1795.22 1481.47l-.03 1.27v.66l.03.83h-1.58v-2.95h1.58z" fill="#263dc7"/><path stroke="#263dc7" stroke-width=".05" fill="#263dc7"/><use xlink:href="#E" transform="matrix(1,0,0,1,1534.34012345679,1336.4307629977793) translate(0.005000000000002558 17.955555555555552)"/><path d="M1506.63 1712.07l.13 1.7.38 1.6.64 1.53.86 1.4 1.07 1.27 1.27 1.07 1.4.86 1.53.63 1.6.4 1.7.12h30.7v2.95h-30.8l-2.06-.16-2.06-.5-1.95-.8-1.8-1.1-1.6-1.38-1.38-1.6-1.1-1.8-.82-1.97-.5-2.06-.15-2.05v-32.45h2.95zm133.55 13.53h-61.52v-2.95h61.52zm92.27 0h-61.5v-2.95h61.5zm61.5 0h-30.74v-2.95h30.76zm-287.32-78.23h-2.95v-64.75h2.95zm0-99.26h-2.95v-62.62h2.95zm0-95h-2.95v-64.75h2.95zm0-97.13h-2.95v-64.76h2.95zm0-97.13h-2.95v-64.76h2.95zm0-97.14h-2.95v-32.38h2.95z" stroke="#263dc7" stroke-width=".05" fill="#263dc7"/><path d="M1509.8 1127.82h-9.28l4.63-14.26z" fill="#263dc7"/><path d="M1511.82 1129.3h-13.34l6.67-20.52zm-9.27-2.95h5.2l-2.6-8.02z" stroke="#263dc7" stroke-width=".05" fill="#263dc7"/><path d="M1795.5 1722.85l-.04 1.27v.65l.05.83h-1.57v-2.95h1.57z" fill="#263dc7"/><path stroke="#263dc7" stroke-width=".05" fill="#263dc7"/><use xlink:href="#E" transform="matrix(1,0,0,1,1443.4908772456597,1548.1053573262375) translate(0.005000000000002558 17.955555555555552)"/><path d="M1192.3 1001.48h-24.34v-2.96h24.34zm24.86 0h-.52v-2.96h.52zm153.4 0h-30.08v-2.96h30.08z" stroke="#263dc7" stroke-width=".05" fill="#263dc7"/><path d="M1168 1001.48h-1.57l.03-1.47-.02-1.48h1.56z" fill="#263dc7"/><path stroke="#263dc7" stroke-width=".05" fill="#263dc7"/><path d="M1386.32 1000l-14.26 4.63v-9.26z" fill="#263dc7"/><path d="M1391.1 1000l-20.52 6.66v-13.32zm-17.57 2.6l8.02-2.6-8.02-2.6z" stroke="#263dc7" stroke-width=".05" fill="#263dc7"/><use xlink:href="#E" transform="matrix(1,0,0,1,1217.1589672082928,986.5333333333331) translate(0.005000000000002558 17.955555555555552)"/><defs><path fill="#263dc7" d="M135-143c-3-34-86-38-87 0 15 53 115 12 119 90S17 21 10-45l28-5c4 36 97 45 98 0-10-56-113-15-118-90-4-57 82-63 122-42 12 7 21 19 24 35" id="F"/><path fill="#263dc7" d="M24-231v-30h32v30H24zM24 0v-190h32V0H24" id="G"/><path fill="#263dc7" d="M206 0h-36l-40-164L89 0H53L-1-190h32L70-26l43-164h34l41 164 42-164h31" id="H"/><path fill="#263dc7" d="M141-36C126-15 110 5 73 4 37 3 15-17 15-53c-1-64 63-63 125-63 3-35-9-54-41-54-24 1-41 7-42 31l-33-3c5-37 33-52 76-52 45 0 72 20 72 64v82c-1 20 7 32 28 27v20c-31 9-61-2-59-35zM48-53c0 20 12 33 32 33 41-3 63-29 60-74-43 2-92-5-92 41" id="I"/><g id="b"><use transform="matrix(0.08641975308641976,0,0,0.08641975308641976,0,0)" xlink:href="#F"/><use transform="matrix(0.08641975308641976,0,0,0.08641975308641976,15.555555555555557,0)" xlink:href="#G"/><use transform="matrix(0.08641975308641976,0,0,0.08641975308641976,22.38271604938272,0)" xlink:href="#F"/><use transform="matrix(0.08641975308641976,0,0,0.08641975308641976,37.93827160493828,0)" xlink:href="#H"/><use transform="matrix(0.08641975308641976,0,0,0.08641975308641976,60.320987654321,0)" xlink:href="#I"/></g><filter id="a" filterUnits="objectBoundingBox" x="-.01" y="0" width="1.07" height="1.04"><feOffset result="offOut" in="SourceAlpha" dx="3.21" dy="3.83"/><feGaussianBlur result="blurOut" in="offOut" stdDeviation="2.5"/><feColorMatrix result="colorOut" in="blurOut" values="0 0 0 0 0 0 0 0 0 0 0 0 0 0 0 0 0 0 0.4 0"/><feBlend in="SourceGraphic" in2="colorOut"/></filter><path fill="#263dc7" d="M266 0h-40l-56-210L115 0H75L2-248h35L96-30l15-64 43-154h32l59 218 59-218h35" id="J"/><path fill="#263dc7" d="M24 0v-261h32V0H24" id="K"/><g id="c"><use transform="matrix(0.08641975308641976,0,0,0.08641975308641976,0,0)" xlink:href="#J"/><use transform="matrix(0.08641975308641976,0,0,0.08641975308641976,28.172839506172842,0)" xlink:href="#I"/><use transform="matrix(0.08641975308641976,0,0,0.08641975308641976,45.4567901234568,0)" xlink:href="#K"/><use transform="matrix(0.08641975308641976,0,0,0.08641975308641976,52.28395061728396,0)" xlink:href="#G"/></g><path fill="#263dc7" d="M185-189c-5-48-123-54-124 2 14 75 158 14 163 119 3 78-121 87-175 55-17-10-28-26-33-46l33-7c5 56 141 63 141-1 0-78-155-14-162-118-5-82 145-84 179-34 5 7 8 16 11 25" id="L"/><g id="d"><use transform="matrix(0.08641975308641976,0,0,0.08641975308641976,0,0)" xlink:href="#L"/><use transform="matrix(0.08641975308641976,0,0,0.08641975308641976,20.740740740740744,0)" xlink:href="#G"/><use transform="matrix(0.08641975308641976,0,0,0.08641975308641976,27.567901234567906,0)" xlink:href="#F"/><use transform="matrix(0.08641975308641976,0,0,0.08641975308641976,43.12345679012346,0)" xlink:href="#H"/><use transform="matrix(0.08641975308641976,0,0,0.08641975308641976,65.50617283950618,0)" xlink:href="#I"/></g><path fill="#263dc7" d="M33 0v-248h34V0H33" id="M"/><path fill="#263dc7" d="M117-194c89-4 53 116 60 194h-32v-121c0-31-8-49-39-48C34-167 62-67 57 0H25l-1-190h30c1 10-1 24 2 32 11-22 29-35 61-36" id="N"/><path fill="#263dc7" d="M101-234c-31-9-42 10-38 44h38v23H63V0H32v-167H5v-23h27c-7-52 17-82 69-68v24" id="O"/><path fill="#263dc7" d="M100-194c62-1 85 37 85 99 1 63-27 99-86 99S16-35 15-95c0-66 28-99 85-99zM99-20c44 1 53-31 53-75 0-43-8-75-51-75s-53 32-53 75 10 74 51 75" id="P"/><path fill="#263dc7" d="M114-163C36-179 61-72 57 0H25l-1-190h30c1 12-1 29 2 39 6-27 23-49 58-41v29" id="Q"/><path fill="#263dc7" d="M210-169c-67 3-38 105-44 169h-31v-121c0-29-5-50-35-48C34-165 62-65 56 0H25l-1-190h30c1 10-1 24 2 32 10-44 99-50 107 0 11-21 27-35 58-36 85-2 47 119 55 194h-31v-121c0-29-5-49-35-48" id="R"/><g id="f"><use transform="matrix(0.08641975308641976,0,0,0.08641975308641976,0,0)" xlink:href="#M"/><use transform="matrix(0.08641975308641976,0,0,0.08641975308641976,8.641975308641976,0)" xlink:href="#N"/><use transform="matrix(0.08641975308641976,0,0,0.08641975308641976,25.925925925925927,0)" xlink:href="#O"/><use transform="matrix(0.08641975308641976,0,0,0.08641975308641976,34.567901234567906,0)" xlink:href="#P"/><use transform="matrix(0.08641975308641976,0,0,0.08641975308641976,51.851851851851855,0)" xlink:href="#Q"/><use transform="matrix(0.08641975308641976,0,0,0.08641975308641976,62.13580246913581,0)" xlink:href="#R"/><use transform="matrix(0.08641975308641976,0,0,0.08641975308641976,87.97530864197532,0)" xlink:href="#I"/><use transform="matrix(0.08641975308641976,0,0,0.08641975308641976,105.25925925925927,0)" xlink:href="#F"/><use transform="matrix(0.08641975308641976,0,0,0.08641975308641976,120.81481481481482,0)" xlink:href="#G"/></g><path fill="#263dc7" d="M85-194c31 0 48 13 60 33l-1-100h32l1 261h-30c-2-10 0-23-3-31C134-8 116 4 85 4 32 4 16-35 15-94c0-66 23-100 70-100zm9 24c-40 0-46 34-46 75 0 40 6 74 45 74 42 0 51-32 51-76 0-42-9-74-50-73" id="S"/><path fill="#263dc7" d="M59-47c-2 24 18 29 38 22v24C64 9 27 4 27-40v-127H5v-23h24l9-43h21v43h35v23H59v120" id="T"/><g id="g"><use transform="matrix(0.08641975308641976,0,0,0.08641975308641976,0,0)" xlink:href="#S"/><use transform="matrix(0.08641975308641976,0,0,0.08641975308641976,17.283950617283953,0)" xlink:href="#I"/><use transform="matrix(0.08641975308641976,0,0,0.08641975308641976,34.567901234567906,0)" xlink:href="#T"/><use transform="matrix(0.08641975308641976,0,0,0.08641975308641976,43.20987654320988,0)" xlink:href="#I"/></g><path fill="#263dc7" d="M115-194c55 1 70 41 70 98S169 2 115 4C84 4 66-9 55-30l1 105H24l-1-265h31l2 30c10-21 28-34 59-34zm-8 174c40 0 45-34 45-75s-6-73-45-74c-42 0-51 32-51 76 0 43 10 73 51 73" id="U"/><path fill="#263dc7" d="M100-194c63 0 86 42 84 106H49c0 40 14 67 53 68 26 1 43-12 49-29l28 8c-11 28-37 45-77 45C44 4 14-33 15-96c1-61 26-98 85-98zm52 81c6-60-76-77-97-28-3 7-6 17-6 28h103" id="V"/><path fill="#263dc7" d="M177-190C167-65 218 103 67 71c-23-6-38-20-44-43l32-5c15 47 100 32 89-28v-30C133-14 115 1 83 1 29 1 15-40 15-95c0-56 16-97 71-98 29-1 48 16 59 35 1-10 0-23 2-32h30zM94-22c36 0 50-32 50-73 0-42-14-75-50-75-39 0-46 34-46 75s6 73 46 73" id="W"/><g id="h"><use transform="matrix(0.08641975308641976,0,0,0.08641975308641976,0,0)" xlink:href="#U"/><use transform="matrix(0.08641975308641976,0,0,0.08641975308641976,17.283950617283953,0)" xlink:href="#V"/><use transform="matrix(0.08641975308641976,0,0,0.08641975308641976,34.567901234567906,0)" xlink:href="#K"/><use transform="matrix(0.08641975308641976,0,0,0.08641975308641976,41.39506172839506,0)" xlink:href="#I"/><use transform="matrix(0.08641975308641976,0,0,0.08641975308641976,58.679012345679006,0)" xlink:href="#N"/><use transform="matrix(0.08641975308641976,0,0,0.08641975308641976,75.96296296296296,0)" xlink:href="#W"/><use transform="matrix(0.08641975308641976,0,0,0.08641975308641976,93.2469135802469,0)" xlink:href="#W"/><use transform="matrix(0.08641975308641976,0,0,0.08641975308641976,110.53086419753086,0)" xlink:href="#I"/><use transform="matrix(0.08641975308641976,0,0,0.08641975308641976,127.81481481481481,0)" xlink:href="#Q"/><use transform="matrix(0.08641975308641976,0,0,0.08641975308641976,138.09876543209876,0)" xlink:href="#I"/><use transform="matrix(0.08641975308641976,0,0,0.08641975308641976,155.3827160493827,0)" xlink:href="#N"/></g><g id="i"><use transform="matrix(0.08641975308641976,0,0,0.08641975308641976,0,0)" xlink:href="#F"/><use transform="matrix(0.08641975308641976,0,0,0.08641975308641976,15.555555555555557,0)" xlink:href="#G"/><use transform="matrix(0.08641975308641976,0,0,0.08641975308641976,22.38271604938272,0)" xlink:href="#F"/><use transform="matrix(0.08641975308641976,0,0,0.08641975308641976,37.93827160493828,0)" xlink:href="#H"/><use transform="matrix(0.08641975308641976,0,0,0.08641975308641976,60.320987654321,0)" xlink:href="#I"/></g><filter id="e" filterUnits="objectBoundingBox" x="-.01" y="0" width="1.03" height="1.04"><feOffset result="offOut" in="SourceAlpha" dx="3.21" dy="3.83"/><feGaussianBlur result="blurOut" in="offOut" stdDeviation="2.5"/><feColorMatrix result="colorOut" in="blurOut" values="0 0 0 0 0 0 0 0 0 0 0 0 0 0 0 0 0 0 0.4 0"/><feBlend in="SourceGraphic" in2="colorOut"/></filter><path fill="#fff" d="M24 0v-248h52v208h133V0H24" id="X"/><path fill="#fff" d="M110-194c64 0 96 36 96 99 0 64-35 99-97 99-61 0-95-36-95-99 0-62 34-99 96-99zm-1 164c35 0 45-28 45-65 0-40-10-65-43-65-34 0-45 26-45 65 0 36 10 65 43 65" id="Y"/><path fill="#fff" d="M195-6C206 82 75 100 31 46c-4-6-6-13-8-21l49-6c3 16 16 24 34 25 40 0 42-37 40-79-11 22-30 35-61 35-53 0-70-43-70-97 0-56 18-96 73-97 30 0 46 14 59 34l2-30h47zm-90-29c32 0 41-27 41-63 0-35-9-62-40-62-32 0-39 29-40 63 0 36 9 62 39 62" id="Z"/><path fill="#fff" d="M25-224v-37h50v37H25zM25 0v-190h50V0H25" id="aa"/><path fill="#fff" d="M135-194c87-1 58 113 63 194h-50c-7-57 23-157-34-157-59 0-34 97-39 157H25l-1-190h47c2 12-1 28 3 38 12-26 28-41 61-42" id="ab"/><g id="k"><use transform="matrix(0.08641975308641976,0,0,0.08641975308641976,0,0)" xlink:href="#X"/><use transform="matrix(0.08641975308641976,0,0,0.08641975308641976,18.925925925925927,0)" xlink:href="#Y"/><use transform="matrix(0.08641975308641976,0,0,0.08641975308641976,37.851851851851855,0)" xlink:href="#Z"/><use transform="matrix(0.08641975308641976,0,0,0.08641975308641976,56.777777777777786,0)" xlink:href="#aa"/><use transform="matrix(0.08641975308641976,0,0,0.08641975308641976,65.41975308641976,0)" xlink:href="#ab"/></g><filter id="j" filterUnits="objectBoundingBox" x="-.01" y="-.01" width="1.04" height="1.05"><feOffset result="offOut" in="SourceAlpha" dx="3.21" dy="3.83"/><feGaussianBlur result="blurOut" in="offOut" stdDeviation="2.5"/><feColorMatrix result="colorOut" in="blurOut" values="0 0 0 0 0 0 0 0 0 0 0 0 0 0 0 0 0 0 0.4 0"/><feBlend in="SourceGraphic" in2="colorOut"/></filter><path fill="#263dc7" d="M205 0l-28-72H64L36 0H1l101-248h38L239 0h-34zm-38-99l-47-123c-12 45-31 82-46 123h93" id="ac"/><g id="m"><use transform="matrix(0.08641975308641976,0,0,0.08641975308641976,0,0)" xlink:href="#ac"/><use transform="matrix(0.08641975308641976,0,0,0.08641975308641976,20.740740740740744,0)" xlink:href="#S"/><use transform="matrix(0.08641975308641976,0,0,0.08641975308641976,38.0246913580247,0)" xlink:href="#R"/><use transform="matrix(0.08641975308641976,0,0,0.08641975308641976,63.8641975308642,0)" xlink:href="#G"/><use transform="matrix(0.08641975308641976,0,0,0.08641975308641976,70.69135802469137,0)" xlink:href="#N"/><use transform="matrix(0.08641975308641976,0,0,0.08641975308641976,87.97530864197532,0)" xlink:href="#G"/><use transform="matrix(0.08641975308641976,0,0,0.08641975308641976,94.80246913580248,0)" xlink:href="#F"/><use transform="matrix(0.08641975308641976,0,0,0.08641975308641976,110.35802469135804,0)" xlink:href="#T"/><use transform="matrix(0.08641975308641976,0,0,0.08641975308641976,119.00000000000001,0)" xlink:href="#Q"/><use transform="matrix(0.08641975308641976,0,0,0.08641975308641976,129.28395061728398,0)" xlink:href="#I"/><use transform="matrix(0.08641975308641976,0,0,0.08641975308641976,146.56790123456793,0)" xlink:href="#T"/><use transform="matrix(0.08641975308641976,0,0,0.08641975308641976,155.2098765432099,0)" xlink:href="#P"/><use transform="matrix(0.08641975308641976,0,0,0.08641975308641976,172.49382716049385,0)" xlink:href="#Q"/></g><g id="n"><use transform="matrix(0.08641975308641976,0,0,0.08641975308641976,0,0)" xlink:href="#L"/><use transform="matrix(0.08641975308641976,0,0,0.08641975308641976,20.740740740740744,0)" xlink:href="#G"/><use transform="matrix(0.08641975308641976,0,0,0.08641975308641976,27.567901234567906,0)" xlink:href="#F"/><use transform="matrix(0.08641975308641976,0,0,0.08641975308641976,43.12345679012346,0)" xlink:href="#T"/><use transform="matrix(0.08641975308641976,0,0,0.08641975308641976,51.76543209876544,0)" xlink:href="#V"/><use transform="matrix(0.08641975308641976,0,0,0.08641975308641976,69.0493827160494,0)" xlink:href="#R"/></g><filter id="l" filterUnits="objectBoundingBox" x="0" y="-.01" width="1.03" height="1.07"><feOffset result="offOut" in="SourceAlpha" dx="3.21" dy="3.83"/><feGaussianBlur result="blurOut" in="offOut" stdDeviation="2.5"/><feColorMatrix result="colorOut" in="blurOut" values="0 0 0 0 0 0 0 0 0 0 0 0 0 0 0 0 0 0 0.4 0"/><feBlend in="SourceGraphic" in2="colorOut"/></filter><path fill="#263dc7" d="M212-179c-10-28-35-45-73-45-59 0-87 40-87 99 0 60 29 101 89 101 43 0 62-24 78-52l27 14C228-24 195 4 139 4 59 4 22-46 18-125c-6-104 99-153 187-111 19 9 31 26 39 46" id="ad"/><path fill="#263dc7" d="M68-38c1 34 0 65-14 84H32c9-13 17-26 17-46H33v-38h35" id="ae"/><g id="o"><use transform="matrix(0.08641975308641976,0,0,0.08641975308641976,0,0)" xlink:href="#ad"/><use transform="matrix(0.08641975308641976,0,0,0.08641975308641976,22.38271604938272,0)" xlink:href="#Q"/><use transform="matrix(0.08641975308641976,0,0,0.08641975308641976,32.66666666666667,0)" xlink:href="#V"/><use transform="matrix(0.08641975308641976,0,0,0.08641975308641976,49.95061728395062,0)" xlink:href="#I"/><use transform="matrix(0.08641975308641976,0,0,0.08641975308641976,67.23456790123457,0)" xlink:href="#T"/><use transform="matrix(0.08641975308641976,0,0,0.08641975308641976,75.87654320987654,0)" xlink:href="#V"/><use transform="matrix(0.08641975308641976,0,0,0.08641975308641976,93.16049382716048,0)" xlink:href="#ae"/></g><path fill="#263dc7" d="M30 0v-248h187v28H63v79h144v27H63v87h162V0H30" id="af"/><g id="p"><use transform="matrix(0.08641975308641976,0,0,0.08641975308641976,0,0)" xlink:href="#af"/><use transform="matrix(0.08641975308641976,0,0,0.08641975308641976,20.740740740740744,0)" xlink:href="#S"/><use transform="matrix(0.08641975308641976,0,0,0.08641975308641976,38.0246913580247,0)" xlink:href="#G"/><use transform="matrix(0.08641975308641976,0,0,0.08641975308641976,44.85185185185187,0)" xlink:href="#T"/><use transform="matrix(0.08641975308641976,0,0,0.08641975308641976,53.49382716049383,0)" xlink:href="#ae"/></g><path fill="#263dc7" d="M30-248c118-7 216 8 213 122C240-48 200 0 122 0H30v-248zM63-27c89 8 146-16 146-99s-60-101-146-95v194" id="ag"/><g id="q"><use transform="matrix(0.08641975308641976,0,0,0.08641975308641976,0,0)" xlink:href="#ag"/><use transform="matrix(0.08641975308641976,0,0,0.08641975308641976,22.38271604938272,0)" xlink:href="#V"/><use transform="matrix(0.08641975308641976,0,0,0.08641975308641976,39.66666666666667,0)" xlink:href="#K"/><use transform="matrix(0.08641975308641976,0,0,0.08641975308641976,46.49382716049383,0)" xlink:href="#V"/><use transform="matrix(0.08641975308641976,0,0,0.08641975308641976,63.777777777777786,0)" xlink:href="#T"/><use transform="matrix(0.08641975308641976,0,0,0.08641975308641976,72.41975308641976,0)" xlink:href="#V"/></g><path fill="#263dc7" d="M232-93c-1 65-40 97-104 97C67 4 28-28 28-90v-158h33c8 89-33 224 67 224 102 0 64-133 71-224h33v155" id="ah"/><g id="r"><use transform="matrix(0.08641975308641976,0,0,0.08641975308641976,0,0)" xlink:href="#ah"/><use transform="matrix(0.08641975308641976,0,0,0.08641975308641976,22.38271604938272,0)" xlink:href="#F"/><use transform="matrix(0.08641975308641976,0,0,0.08641975308641976,37.93827160493828,0)" xlink:href="#V"/><use transform="matrix(0.08641975308641976,0,0,0.08641975308641976,55.22222222222223,0)" xlink:href="#Q"/></g><path fill="#263dc7" d="M240 0l2-218c-23 76-54 145-80 218h-23L58-218 59 0H30v-248h44l77 211c21-75 51-140 76-211h43V0h-30" id="ai"/><path fill="#263dc7" d="M84 4C-5 8 30-112 23-190h32v120c0 31 7 50 39 49 72-2 45-101 50-169h31l1 190h-30c-1-10 1-25-2-33-11 22-28 36-60 37" id="aj"/><path fill="#263dc7" d="M143 0L79-87 56-68V0H24v-261h32v163l83-92h37l-77 82L181 0h-38" id="ak"/><g id="s"><use transform="matrix(0.08641975308641976,0,0,0.08641975308641976,0,0)" xlink:href="#ai"/><use transform="matrix(0.08641975308641976,0,0,0.08641975308641976,25.83950617283951,0)" xlink:href="#V"/><use transform="matrix(0.08641975308641976,0,0,0.08641975308641976,43.12345679012346,0)" xlink:href="#R"/><use transform="matrix(0.08641975308641976,0,0,0.08641975308641976,68.96296296296298,0)" xlink:href="#I"/><use transform="matrix(0.08641975308641976,0,0,0.08641975308641976,86.24691358024693,0)" xlink:href="#F"/><use transform="matrix(0.08641975308641976,0,0,0.08641975308641976,101.80246913580248,0)" xlink:href="#aj"/><use transform="matrix(0.08641975308641976,0,0,0.08641975308641976,119.08641975308643,0)" xlink:href="#ak"/><use transform="matrix(0.08641975308641976,0,0,0.08641975308641976,134.64197530864197,0)" xlink:href="#I"/><use transform="matrix(0.08641975308641976,0,0,0.08641975308641976,151.92592592592592,0)" xlink:href="#N"/></g><g id="t"><use transform="matrix(0.08641975308641976,0,0,0.08641975308641976,0,0)" xlink:href="#ag"/><use transform="matrix(0.08641975308641976,0,0,0.08641975308641976,22.38271604938272,0)" xlink:href="#I"/><use transform="matrix(0.08641975308641976,0,0,0.08641975308641976,39.66666666666667,0)" xlink:href="#T"/><use transform="matrix(0.08641975308641976,0,0,0.08641975308641976,48.308641975308646,0)" xlink:href="#I"/></g><path fill="#263dc7" d="M140-251c81 0 123 46 123 126C263-46 219 4 140 4 59 4 17-45 17-125s42-126 123-126zm0 227c63 0 89-41 89-101s-29-99-89-99c-61 0-89 39-89 99S79-25 140-24" id="al"/><g id="u"><use transform="matrix(0.08641975308641976,0,0,0.08641975308641976,0,0)" xlink:href="#al"/><use transform="matrix(0.08641975308641976,0,0,0.08641975308641976,24.19753086419753,0)" xlink:href="#Q"/><use transform="matrix(0.08641975308641976,0,0,0.08641975308641976,34.48148148148148,0)" xlink:href="#I"/><use transform="matrix(0.08641975308641976,0,0,0.08641975308641976,51.76543209876543,0)" xlink:href="#N"/><use transform="matrix(0.08641975308641976,0,0,0.08641975308641976,69.04938271604938,0)" xlink:href="#W"/></g><path fill="#263dc7" d="M127-220V0H93v-220H8v-28h204v28h-85" id="am"/><g id="v"><use transform="matrix(0.08641975308641976,0,0,0.08641975308641976,0,0)" xlink:href="#am"/><use transform="matrix(0.08641975308641976,0,0,0.08641975308641976,17.802469135802472,0)" xlink:href="#aj"/><use transform="matrix(0.08641975308641976,0,0,0.08641975308641976,35.086419753086425,0)" xlink:href="#I"/></g><g id="w"><use transform="matrix(0.08641975308641976,0,0,0.08641975308641976,0,0)" xlink:href="#ai"/><use transform="matrix(0.08641975308641976,0,0,0.08641975308641976,25.83950617283951,0)" xlink:href="#V"/><use transform="matrix(0.08641975308641976,0,0,0.08641975308641976,43.12345679012346,0)" xlink:href="#R"/><use transform="matrix(0.08641975308641976,0,0,0.08641975308641976,68.96296296296298,0)" xlink:href="#V"/><use transform="matrix(0.08641975308641976,0,0,0.08641975308641976,86.24691358024693,0)" xlink:href="#I"/><use transform="matrix(0.08641975308641976,0,0,0.08641975308641976,103.53086419753087,0)" xlink:href="#F"/><use transform="matrix(0.08641975308641976,0,0,0.08641975308641976,119.08641975308643,0)" xlink:href="#aj"/><use transform="matrix(0.08641975308641976,0,0,0.08641975308641976,136.37037037037038,0)" xlink:href="#ak"/><use transform="matrix(0.08641975308641976,0,0,0.08641975308641976,151.92592592592592,0)" xlink:href="#I"/><use transform="matrix(0.08641975308641976,0,0,0.08641975308641976,169.20987654320987,0)" xlink:href="#N"/></g><path fill="#263dc7" d="M30-248c87 1 191-15 191 75 0 78-77 80-158 76V0H30v-248zm33 125c57 0 124 11 124-50 0-59-68-47-124-48v98" id="an"/><g id="x"><use transform="matrix(0.08641975308641976,0,0,0.08641975308641976,0,0)" xlink:href="#an"/><use transform="matrix(0.08641975308641976,0,0,0.08641975308641976,20.740740740740744,0)" xlink:href="#V"/><use transform="matrix(0.08641975308641976,0,0,0.08641975308641976,38.0246913580247,0)" xlink:href="#K"/><use transform="matrix(0.08641975308641976,0,0,0.08641975308641976,44.85185185185187,0)" xlink:href="#I"/><use transform="matrix(0.08641975308641976,0,0,0.08641975308641976,62.13580246913581,0)" xlink:href="#N"/><use transform="matrix(0.08641975308641976,0,0,0.08641975308641976,79.41975308641976,0)" xlink:href="#W"/><use transform="matrix(0.08641975308641976,0,0,0.08641975308641976,96.70370370370371,0)" xlink:href="#W"/><use transform="matrix(0.08641975308641976,0,0,0.08641975308641976,113.98765432098767,0)" xlink:href="#I"/><use transform="matrix(0.08641975308641976,0,0,0.08641975308641976,131.27160493827162,0)" xlink:href="#Q"/><use transform="matrix(0.08641975308641976,0,0,0.08641975308641976,141.55555555555557,0)" xlink:href="#I"/><use transform="matrix(0.08641975308641976,0,0,0.08641975308641976,158.83950617283952,0)" xlink:href="#N"/></g><g id="y"><use transform="matrix(0.08641975308641976,0,0,0.08641975308641976,0,0)" xlink:href="#an"/><use transform="matrix(0.08641975308641976,0,0,0.08641975308641976,20.740740740740744,0)" xlink:href="#P"/><use transform="matrix(0.08641975308641976,0,0,0.08641975308641976,38.0246913580247,0)" xlink:href="#G"/><use transform="matrix(0.08641975308641976,0,0,0.08641975308641976,44.85185185185187,0)" xlink:href="#N"/></g><path fill="#263dc7" d="M194 0L95-120 63-95V0H30v-248h33v124l119-124h40L117-140 236 0h-42" id="ao"/><path fill="#263dc7" d="M24-231v-30h32v30H24zM-9 49c24 4 33-6 33-30v-209h32V24c2 40-23 58-65 49V49" id="ap"/><g id="z"><use transform="matrix(0.08641975308641976,0,0,0.08641975308641976,0,0)" xlink:href="#ao"/><use transform="matrix(0.08641975308641976,0,0,0.08641975308641976,20.740740740740744,0)" xlink:href="#V"/><use transform="matrix(0.08641975308641976,0,0,0.08641975308641976,38.0246913580247,0)" xlink:href="#ap"/><use transform="matrix(0.08641975308641976,0,0,0.08641975308641976,44.85185185185187,0)" xlink:href="#I"/><use transform="matrix(0.08641975308641976,0,0,0.08641975308641976,62.13580246913581,0)" xlink:href="#S"/><use transform="matrix(0.08641975308641976,0,0,0.08641975308641976,79.41975308641976,0)" xlink:href="#G"/><use transform="matrix(0.08641975308641976,0,0,0.08641975308641976,86.24691358024693,0)" xlink:href="#I"/><use transform="matrix(0.08641975308641976,0,0,0.08641975308641976,103.53086419753087,0)" xlink:href="#N"/></g><g id="A"><use transform="matrix(0.08641975308641976,0,0,0.08641975308641976,0,0)" xlink:href="#an"/><use transform="matrix(0.08641975308641976,0,0,0.08641975308641976,20.740740740740744,0)" xlink:href="#V"/><use transform="matrix(0.08641975308641976,0,0,0.08641975308641976,38.0246913580247,0)" xlink:href="#K"/><use transform="matrix(0.08641975308641976,0,0,0.08641975308641976,44.85185185185187,0)" xlink:href="#I"/><use transform="matrix(0.08641975308641976,0,0,0.08641975308641976,62.13580246913581,0)" xlink:href="#N"/><use transform="matrix(0.08641975308641976,0,0,0.08641975308641976,79.41975308641976,0)" xlink:href="#W"/><use transform="matrix(0.08641975308641976,0,0,0.08641975308641976,96.70370370370371,0)" xlink:href="#W"/><use transform="matrix(0.08641975308641976,0,0,0.08641975308641976,113.98765432098767,0)" xlink:href="#I"/><use transform="matrix(0.08641975308641976,0,0,0.08641975308641976,131.27160493827162,0)" xlink:href="#Q"/><use transform="matrix(0.08641975308641976,0,0,0.08641975308641976,141.55555555555557,0)" xlink:href="#N"/></g><g id="B"><use transform="matrix(0.08641975308641976,0,0,0.08641975308641976,0,0)" xlink:href="#ac"/><use transform="matrix(0.08641975308641976,0,0,0.08641975308641976,20.740740740740744,0)" xlink:href="#S"/><use transform="matrix(0.08641975308641976,0,0,0.08641975308641976,38.0246913580247,0)" xlink:href="#R"/><use transform="matrix(0.08641975308641976,0,0,0.08641975308641976,63.8641975308642,0)" xlink:href="#G"/><use transform="matrix(0.08641975308641976,0,0,0.08641975308641976,70.69135802469137,0)" xlink:href="#N"/></g><path fill="#263dc7" d="M143 4C61 4 22-44 18-125c-5-107 100-154 193-111 17 8 29 25 37 43l-32 9c-13-25-37-40-76-40-61 0-88 39-88 99 0 61 29 100 91 101 35 0 62-11 79-27v-45h-74v-28h105v86C228-13 192 4 143 4" id="aq"/><g id="C"><use transform="matrix(0.08641975308641976,0,0,0.08641975308641976,0,0)" xlink:href="#aq"/><use transform="matrix(0.08641975308641976,0,0,0.08641975308641976,24.19753086419753,0)" xlink:href="#aj"/><use transform="matrix(0.08641975308641976,0,0,0.08641975308641976,41.48148148148148,0)" xlink:href="#Q"/><use transform="matrix(0.08641975308641976,0,0,0.08641975308641976,51.76543209876543,0)" xlink:href="#aj"/></g><path fill="#263dc7" d="M160-131c35 5 61 23 61 61C221 17 115-2 30 0v-248c76 3 177-17 177 60 0 33-19 50-47 57zm-97-11c50-1 110 9 110-42 0-47-63-36-110-37v79zm0 115c55-2 124 14 124-45 0-56-70-42-124-44v89" id="ar"/><g id="D"><use transform="matrix(0.08641975308641976,0,0,0.08641975308641976,0,0)" xlink:href="#ar"/><use transform="matrix(0.08641975308641976,0,0,0.08641975308641976,20.740740740740744,0)" xlink:href="#ao"/></g><path fill="#263dc7" d="M18-100v-36l175-74v27L42-118l151 64v27" id="as"/><path fill="#263dc7" d="M96-169c-40 0-48 33-48 73s9 75 48 75c24 0 41-14 43-38l32 2c-6 37-31 61-74 61-59 0-76-41-82-99-10-93 101-131 147-64 4 7 5 14 7 22l-32 3c-4-21-16-35-41-35" id="at"/><path fill="#263dc7" d="M18-27v-27l151-64-151-65v-27l175 74v36" id="au"/><g id="E"><use transform="matrix(0.06234567901234567,0,0,0.06234567901234567,0,0)" xlink:href="#as"/><use transform="matrix(0.06234567901234567,0,0,0.06234567901234567,13.09259259259259,0)" xlink:href="#as"/><use transform="matrix(0.06234567901234567,0,0,0.06234567901234567,26.18518518518518,0)" xlink:href="#G"/><use transform="matrix(0.06234567901234567,0,0,0.06234567901234567,31.11049382716049,0)" xlink:href="#N"/><use transform="matrix(0.06234567901234567,0,0,0.06234567901234567,43.57962962962962,0)" xlink:href="#at"/><use transform="matrix(0.06234567901234567,0,0,0.06234567901234567,54.80185185185184,0)" xlink:href="#K"/><use transform="matrix(0.06234567901234567,0,0,0.06234567901234567,59.72716049382715,0)" xlink:href="#aj"/><use transform="matrix(0.06234567901234567,0,0,0.06234567901234567,72.19629629629628,0)" xlink:href="#S"/><use transform="matrix(0.06234567901234567,0,0,0.06234567901234567,84.66543209876542,0)" xlink:href="#V"/><use transform="matrix(0.06234567901234567,0,0,0.06234567901234567,97.13456790123456,0)" xlink:href="#au"/><use transform="matrix(0.06234567901234567,0,0,0.06234567901234567,110.22716049382716,0)" xlink:href="#au"/></g></defs></g></svg>